<?xml version="1.0" encoding="UTF-8"?>
<svg version="1.1" xmlns="http://www.w3.org/2000/svg" width="512" height="512">
<path d="M0 0 C1.01790619 0.00215515 2.03581238 0.0043103 3.08456421 0.00653076 C17.69363523 0.05620146 32.02575853 0.30709809 46.375 3.3125 C47.34985352 3.51117676 48.32470703 3.70985352 49.32910156 3.91455078 C97.7109774 14.03517194 141.69928269 35.9516877 177.375 70.3125 C178.3640332 71.26068604 178.3640332 71.26068604 179.37304688 72.22802734 C188.86130305 81.37247479 197.6012044 90.66984009 205.375 101.3125 C206.23306152 102.46355017 207.09113451 103.61459177 207.94921875 104.765625 C213.98736829 112.95680614 219.34595521 121.47054105 224.375 130.3125 C224.73948242 130.94430176 225.10396484 131.57610352 225.47949219 132.22705078 C247.08534998 169.97532572 256.85198095 212.74189997 256.6875 255.9375 C256.68534485 256.95540619 256.6831897 257.97331238 256.68096924 259.02206421 C256.63129854 273.63113523 256.38040191 287.96325853 253.375 302.3125 C253.07698486 303.77478027 253.07698486 303.77478027 252.77294922 305.26660156 C242.65232806 353.6484774 220.7358123 397.63678269 186.375 433.3125 C185.74287598 433.97185547 185.11075195 434.63121094 184.45947266 435.31054688 C175.31502521 444.79880305 166.01765991 453.5387044 155.375 461.3125 C154.22394983 462.17056152 153.07290823 463.02863451 151.921875 463.88671875 C143.73224019 469.92427396 135.22961724 475.30707302 126.375 480.3125 C125.66778809 480.7146875 124.96057617 481.116875 124.23193359 481.53125 C101.09654164 494.5566741 75.92537591 503.30551461 49.9375 508.625 C49.21860596 508.77235596 48.49971191 508.91971191 47.7590332 509.0715332 C33.08339502 511.86090125 18.55831162 512.66142619 3.64770508 512.62817383 C0.70811513 512.6250221 -2.2304558 512.64854926 -5.16992188 512.67382812 C-18.54306192 512.71848737 -31.43916711 511.51301542 -44.625 509.3125 C-46.33055054 509.03031616 -46.33055054 509.03031616 -48.07055664 508.74243164 C-91.33802759 500.97044532 -132.38793216 480.98345309 -165.625 452.3125 C-166.37007813 451.67828125 -167.11515625 451.0440625 -167.8828125 450.390625 C-181.38779833 438.57948485 -194.05918743 425.82889772 -204.625 411.3125 C-205.48149066 410.16255169 -206.33826433 409.01281411 -207.1953125 407.86328125 C-213.23534209 399.67315742 -218.61867614 391.16870382 -223.625 382.3125 C-224.0271875 381.60528809 -224.429375 380.89807617 -224.84375 380.16943359 C-237.8691741 357.03404164 -246.61801461 331.86287591 -251.9375 305.875 C-252.08485596 305.15610596 -252.23221191 304.43721191 -252.3840332 303.6965332 C-255.35789088 288.05024391 -255.99800362 272.57681954 -255.9375 256.6875 C-255.93534485 255.66959381 -255.9331897 254.65168762 -255.93096924 253.60293579 C-255.88129854 238.99386477 -255.63040191 224.66174147 -252.625 210.3125 C-252.42632324 209.33764648 -252.22764648 208.36279297 -252.02294922 207.35839844 C-241.90232806 158.9765226 -219.9858123 114.98821731 -185.625 79.3125 C-184.99287598 78.65314453 -184.36075195 77.99378906 -183.70947266 77.31445312 C-174.56502521 67.82619695 -165.26765991 59.0862956 -154.625 51.3125 C-153.47394983 50.45443848 -152.32290823 49.59636549 -151.171875 48.73828125 C-142.98224019 42.70072604 -134.47961724 37.31792698 -125.625 32.3125 C-124.91778809 31.9103125 -124.21057617 31.508125 -123.48193359 31.09375 C-100.34654164 18.0683259 -75.17537591 9.31948539 -49.1875 4 C-48.46860596 3.85264404 -47.74971191 3.70528809 -47.0090332 3.5534668 C-31.36274391 0.57960912 -15.88931954 -0.06050362 0 0 Z " fill="#333333" transform="translate(255.625,-0.3125)"/>
<path d="M0 0 C12.94783459 0.23977471 22.4532171 9.18613014 31 18 C33.47939859 20.90659227 35.80679818 23.87237064 38 27 C38.721875 26.71125 39.44375 26.4225 40.1875 26.125 C41.115625 25.75375 42.04375 25.3825 43 25 C43.804375 24.67 44.60875 24.34 45.4375 24 C57.78708258 19.1806507 70.19051479 18.649273 83.28222656 18.68432617 C85.73287873 18.68747798 88.18230908 18.66396264 90.6328125 18.63867188 C104.36032376 18.58432886 118.13892714 19.83935942 131 25 C131.90234375 25.35964844 132.8046875 25.71929687 133.734375 26.08984375 C134.85585938 26.54037109 134.85585938 26.54037109 136 27 C136.72703125 26.05640625 136.72703125 26.05640625 137.46875 25.09375 C146.16650643 13.9873841 155.12395795 4.16281262 169 0 C172 -0.1875 172 -0.1875 174 0 C177.6653651 7.99716021 179.33984677 15.22496505 179.25 24 C179.25773438 24.75539062 179.26546875 25.51078125 179.2734375 26.2890625 C179.25032008 33.01623041 177.85489364 38.77727652 175.4375 45.0625 C174.56492458 48.79942802 174.56492458 48.79942802 176.1875 50.56640625 C177.42290913 51.66669251 178.6673082 52.75692466 179.91796875 53.83984375 C190.9363092 65.27163037 193.09135391 83.60176099 193.23828125 98.75 C193.246353 99.56637939 193.25442474 100.38275879 193.26274109 101.22387695 C193.27649085 102.94496599 193.28725316 104.66608126 193.29516602 106.38720703 C193.30662754 108.1148298 193.32698583 109.8424188 193.35668945 111.56982422 C193.71266784 132.3518027 189.94671927 151.52189665 175.04199219 167.015625 C173.70833829 168.35748319 172.35486586 169.67956272 171 171 C170.41605469 171.59296875 169.83210937 172.1859375 169.23046875 172.796875 C155.06302305 186.13938083 135.50450187 190.69760136 117 194 C117.7425 195.010625 118.485 196.02125 119.25 197.0625 C126.29165641 208.4818963 126.57238009 221.46358178 126.390625 234.43359375 C126.38472115 235.86787285 126.38065449 237.30216069 126.37841797 238.7364502 C126.35770937 243.97026755 126.30186669 249.20389868 126.25 254.4375 C126.1675 266.173125 126.085 277.90875 126 290 C100.26 290 74.52 290 48 290 C48 277.46 48 264.92 48 252 C47.01 252.33 46.02 252.66 45 253 C40.50482929 253.29077434 36.00349915 253.27796396 31.5 253.3125 C30.27023438 253.34150391 29.04046875 253.37050781 27.7734375 253.40039062 C14.10231841 253.49472425 1.77468355 248.7648783 -8.51953125 239.56640625 C-14.38017281 233.36556914 -18.5170452 226.22681902 -22.375 218.6875 C-28.22330867 207.32561307 -34.38644163 196.97721969 -45.1640625 189.6484375 C-45.76992187 189.10445312 -46.37578125 188.56046875 -47 188 C-47 186.68 -47 185.36 -47 184 C-36.5695229 183.23053857 -28.78471336 183.66742245 -20 190 C-14.8495947 194.61843856 -11.02610795 199.80347615 -7.4375 205.6875 C-1.87310204 214.75682908 6.24644215 220.70347026 16.296875 224.12109375 C26.58255921 226.56231627 37.77392259 225.16916794 48 223 C48.05607422 222.10861328 48.05607422 222.10861328 48.11328125 221.19921875 C48.94258561 210.74347951 51.42556697 201.92349952 57 193 C55.52853516 192.87044922 55.52853516 192.87044922 54.02734375 192.73828125 C32.32467263 190.58456036 14.20171565 182.56968456 -1 167 C-2.01513672 166.01580078 -2.01513672 166.01580078 -3.05078125 165.01171875 C-13.96128499 153.71414615 -19.11178762 137.14507552 -19.203125 121.76953125 C-19.21364647 120.59324913 -19.21364647 120.59324913 -19.22438049 119.39320374 C-19.24184979 116.86624402 -19.24823495 114.33951792 -19.25 111.8125 C-19.25067474 110.95440735 -19.25134949 110.0963147 -19.25204468 109.21221924 C-19.22484231 87.51693182 -18.41251073 65.41251073 -2 49 C-2.32519797 45.16266393 -2.64573119 41.92978596 -4.01953125 38.32421875 C-5.29763006 33.99090366 -5.38226205 29.99606106 -5.375 25.5 C-5.37584595 24.184552 -5.37584595 24.184552 -5.37670898 22.8425293 C-5.26421988 16.10855064 -5.01884108 5.01884108 0 0 Z " fill="#FEFEFE" transform="translate(183,111)"/>
</svg>
