<?xml version="1.0" encoding="UTF-8"?>
<svg version="1.1" xmlns="http://www.w3.org/2000/svg" width="300" height="110">
<path d="M0 0 C0.94875 0.28875 1.8975 0.5775 2.875 0.875 C5.41047261 2.21730903 6.02711911 3.34668847 7 6 C7.66 6 8.32 6 9 6 C9.12375 6.55816406 9.2475 7.11632813 9.375 7.69140625 C10.29224665 11.07948605 11.70397863 14.23336094 13.0625 17.46484375 C14.71299401 21.92805464 15.13781807 26.00731512 15.125 30.75 C15.12886719 32.19632813 15.12886719 32.19632813 15.1328125 33.671875 C15 36 15 36 14 37 C12.14630389 37.08737645 10.28932459 37.10698153 8.43359375 37.09765625 C7.30888672 37.09443359 6.18417969 37.09121094 5.02539062 37.08789062 C3.84138672 37.07951172 2.65738281 37.07113281 1.4375 37.0625 C0.24962891 37.05798828 -0.93824219 37.05347656 -2.16210938 37.04882812 C-5.10812226 37.03699675 -8.05403681 37.02051287 -11 37 C-12.90625 31.2890625 -12.90625 31.2890625 -13.75 28.6875 C-14.95416647 26.70507037 -14.95416647 26.70507037 -17.8125 26.1875 C-20.952434 26.002798 -23.0532496 25.91435511 -26 27 C-35.74462799 37.85329824 -39.18185533 52.71837341 -39.375 66.9375 C-39.38901855 67.64745117 -39.40303711 68.35740234 -39.41748047 69.08886719 C-39.37430404 73.76742033 -38.55068024 77.06895164 -36 81 C-32.81628696 82.08381721 -31.01061003 82.41613354 -27.875 81.125 C-27.25625 80.75375 -26.6375 80.3825 -26 80 C-25.319375 79.87625 -24.63875 79.7525 -23.9375 79.625 C-21.21611918 78.74713522 -20.39912607 77.44847062 -19 75 C-19 73.68 -19 72.36 -19 71 C-20.65 71 -22.3 71 -24 71 C-25.25892698 65.05595234 -24.55885589 60.48386812 -23.125 54.625 C-22.93808594 53.80644531 -22.75117187 52.98789062 -22.55859375 52.14453125 C-21.15898945 46.15898945 -21.15898945 46.15898945 -20 45 C-16.97022196 44.91128727 -13.96332978 44.8848065 -10.93359375 44.90234375 C-10.02497086 44.9037587 -9.11634796 44.90517365 -8.18019104 44.90663147 C-5.26592779 44.91224807 -2.35174019 44.92480335 0.5625 44.9375 C2.53320202 44.94251286 4.50390524 44.94707614 6.47460938 44.95117188 C11.31643559 44.96222289 16.15820495 44.97949862 21 45 C22.24097522 53.52471713 22.24097522 53.52471713 21.328125 57.4296875 C21.15796875 58.161875 20.9878125 58.8940625 20.8125 59.6484375 C20.5340625 60.75058594 20.5340625 60.75058594 20.25 61.875 C20.07984375 62.63296875 19.9096875 63.3909375 19.734375 64.171875 C18.38633752 69.74244165 18.38633752 69.74244165 15 72 C15.84763916 72.03758423 15.84763916 72.03758423 16.71240234 72.07592773 C19.26683742 72.19179956 21.8208955 72.31456537 24.375 72.4375 C25.26445313 72.47681641 26.15390625 72.51613281 27.0703125 72.55664062 C27.92109375 72.59853516 28.771875 72.64042969 29.6484375 72.68359375 C30.43395996 72.72025146 31.21948242 72.75690918 32.02880859 72.79467773 C34 73 34 73 36 74 C36.6328125 76.06640625 36.6328125 76.06640625 37.125 78.5625 C37.29257813 79.38878906 37.46015625 80.21507813 37.6328125 81.06640625 C37.75398438 81.70449219 37.87515625 82.34257813 38 83 C40.64 82.67 43.28 82.34 46 82 C46.42611123 75.92791497 45.83810431 71.9149058 42 67 C37.49860455 61.75184138 37.49860455 61.75184138 31.8125 58.01953125 C30 57 30 57 29.43359375 55.171875 C29.29050781 54.45515625 29.14742188 53.7384375 29 53 C28.06197242 51.39195272 27.07846992 49.80997337 26.0625 48.25 C21.29099863 40.43480711 19.66093658 32.46073665 21.53515625 23.41796875 C22.94966663 18.26234895 24.8726902 14.37823372 28 10 C28.12761719 9.35160156 28.25523438 8.70320312 28.38671875 8.03515625 C29.58604485 4.05522697 33.56424214 2.029934 37 0 C40.25 -0.8125 40.25 -0.8125 43 -1 C43.60239502 -1.16250244 44.20479004 -1.32500488 44.82543945 -1.49243164 C49.50728373 -2.58522992 54.40180306 -2.35750852 59.1875 -2.4375 C60.28642578 -2.48326172 61.38535156 -2.52902344 62.51757812 -2.57617188 C69.41070519 -2.67071089 73.74794826 -1.7193821 79.3840332 2.31225586 C81.21623259 4.22583712 81.56414666 5.42665609 82 8 C82.62582796 9.18907313 83.29344779 10.35704789 84 11.5 C88.15333973 18.2186378 87.07130758 25.29878167 87 33 C78.75 32.67 70.5 32.34 62 32 C61.01 29.03 60.02 26.06 59 23 C56.03 23.33 53.06 23.66 50 24 C49.61610706 31.00102708 49.61610706 31.00102708 53 37 C54.485 37.495 54.485 37.495 56 38 C56.12890625 38.58265625 56.2578125 39.1653125 56.390625 39.765625 C57.28068334 43.02917226 59.29376565 44.46817282 61.75 46.75 C69.87046482 54.69670309 74.63481612 62.55473554 75.08642578 74.23535156 C75.09779656 76.66276581 75.03735694 79.074694 74.9375 81.5 C74.91220215 82.27778809 74.8869043 83.05557617 74.86083984 83.85693359 C74.63512347 87.31514994 74.37048108 89.5384819 72.171875 92.27734375 C71.45515625 92.84582031 70.7384375 93.41429688 70 94 C68.75665734 95.34116258 67.52701767 96.69517967 66.3125 98.0625 C65.40951172 99.06990234 65.40951172 99.06990234 64.48828125 100.09765625 C62.80254585 102.03320591 62.80254585 102.03320591 62 105 C49.81053652 110.10256611 33.81254887 109.25889033 21.25 106.046875 C14.94807346 103.11472862 12.27080337 94.10107411 10 88 C9.30640208 84.2474574 9.1021621 80.83107862 9 77 C9 80.3 9 83.6 9 87 C8.67 87 8.34 87 8 87 C7.67 85.35 7.34 83.7 7 82 C4.90088925 84.76330698 2.88421094 87.56473219 0.9375 90.4375 C0.43089844 91.17871094 -0.07570313 91.91992188 -0.59765625 92.68359375 C-2.09009669 94.98963191 -2.09009669 94.98963191 -3.01953125 97.703125 C-4 100 -4 100 -6.625 101.3125 C-7.40875 101.539375 -8.1925 101.76625 -9 102 C-9 102.66 -9 103.32 -9 104 C-9.78375 104.309375 -10.5675 104.61875 -11.375 104.9375 C-13.92330128 105.92875038 -13.92330128 105.92875038 -16 107 C-21.03274744 108.67758248 -26.27692317 108.38251759 -31.54931641 108.45996094 C-32.92272026 108.48645332 -34.29592961 108.52725401 -35.66845703 108.58300781 C-44.16022851 108.92325258 -49.9163568 108.65490926 -56.39477539 102.84326172 C-58.77618274 100.10871791 -59.87565207 97.43222 -61 94 C-61.69502451 92.43153473 -62.40398131 90.869187 -63.125 89.3125 C-70.45879251 73.30891401 -66.54429954 51.65912015 -60.796875 35.6484375 C-58.52330933 29.96452333 -55.83411622 24.49043284 -53.015625 19.05859375 C-51.8877956 16.89029634 -51.8877956 16.89029634 -51 14 C-50.4225 13.731875 -49.845 13.46375 -49.25 13.1875 C-46.05004588 11.49863533 -44.2148519 8.77746701 -42 6 C-38.91527416 2.41773773 -36.57966223 1.18731984 -32 0 C-31.30132812 -0.185625 -30.60265625 -0.37125 -29.8828125 -0.5625 C-20.04499993 -2.88486887 -9.65277075 -3.15908861 0 0 Z M10 69 C11 72 11 72 11 72 Z M12 69 C16 70 16 70 16 70 Z M-18 71 C-17 73 -17 73 -17 73 Z M7 78 C8 80 8 80 8 80 Z " fill="#00E458" transform="translate(66,2)"/>
<path d="M0 0 C4.94825616 0.09342065 9.89601634 0.1994876 14.84375 0.31738281 C16.52759329 0.35571104 18.21151955 0.39055712 19.89550781 0.421875 C22.31345306 0.46744287 24.73082528 0.52544923 27.1484375 0.5859375 C27.9036972 0.59748871 28.65895691 0.60903992 29.43710327 0.62094116 C34.77225659 0.77225659 34.77225659 0.77225659 37 3 C37.24609566 4.91715431 37.24609566 4.91715431 37.24050903 7.30264282 C37.24325836 8.20570663 37.24600769 9.10877045 37.24884033 10.03919983 C37.2380545 11.52920753 37.2380545 11.52920753 37.22705078 13.04931641 C37.22734283 14.09324051 37.22763489 15.13716461 37.22793579 16.21272278 C37.22653842 19.67575285 37.21095797 23.13856984 37.1953125 26.6015625 C37.19158382 28.9976693 37.18873617 31.39377761 37.18673706 33.78988647 C37.17908918 40.10612169 37.15943077 46.42226538 37.1373291 52.73846436 C37.11689552 59.17979697 37.10774067 65.62114433 37.09765625 72.0625 C37.07618598 84.70837245 37.04241887 97.35418137 37 110 C32.56224325 109.86138974 28.12487223 109.71288136 23.6875 109.5625 C22.42486328 109.52318359 21.16222656 109.48386719 19.86132812 109.44335938 C18.65283203 109.40146484 17.44433594 109.35957031 16.19921875 109.31640625 C15.08377686 109.27974854 13.96833496 109.24309082 12.8190918 109.20532227 C10 109 10 109 7 108 C7 104.7 7 101.4 7 98 C-0.26 98.33 -7.52 98.66 -15 99 C-16.65 102.3 -18.3 105.6 -20 109 C-28.58 109 -37.16 109 -46 109 C-47.17410661 104.30357355 -46.15019025 102.34237438 -44.16015625 98.21875 C-43.84703491 97.54525513 -43.53391357 96.87176025 -43.21130371 96.17785645 C-42.52981948 94.71515656 -41.84304312 93.25491341 -41.15164185 91.796875 C-39.67129227 88.67498785 -38.21572455 85.54177718 -36.75926208 82.40869141 C-35.99677207 80.76847882 -35.23304936 79.12883878 -34.46815491 77.48974609 C-30.73451595 69.4749259 -27.14746174 61.39786805 -23.58023071 53.30792236 C-18.79445077 42.45514136 -13.9691465 31.63556164 -8.82666016 20.94580078 C-3.05330837 10.75514299 -3.05330837 10.75514299 0 0 Z M11 33 C9.11352867 37.45889761 7.24441072 41.92452989 5.39086914 46.3972168 C4.75819829 47.91708499 4.12086567 49.43502149 3.47875977 50.95092773 C2.55547313 53.13291652 1.64929052 55.32135092 0.74609375 57.51171875 C0.45657333 58.18587326 0.16705292 58.86002777 -0.13124084 59.55461121 C-1.70665542 63.42914442 -2.32936358 65.97808321 -1 70 C-0.37351563 69.97679687 0.25296875 69.95359375 0.8984375 69.9296875 C1.71570313 69.91164062 2.53296875 69.89359375 3.375 69.875 C4.18710938 69.85179687 4.99921875 69.82859375 5.8359375 69.8046875 C8 70 8 70 10 72 C10.78127292 66.24878088 11.27510103 60.54578095 11.5625 54.75 C11.6049585 53.92459717 11.64741699 53.09919434 11.69116211 52.2487793 C12.00237418 45.82979557 12.11544658 39.42652631 12 33 C11.67 33 11.34 33 11 33 Z M-3 68 C-2 70 -2 70 -2 70 Z M-4 70 C-3 72 -3 72 -3 72 Z M-2 71 C-2 71.33 -2 71.66 -2 72 C1.3 72 4.6 72 8 72 C8 71.67 8 71.34 8 71 C4.7 71 1.4 71 -2 71 Z M-12 96 C-12 96.33 -12 96.66 -12 97 C-5.73 97 0.54 97 7 97 C7 96.67 7 96.34 7 96 C0.73 96 -5.54 96 -12 96 Z " fill="#00E459" transform="translate(181,0)"/>
<path d="M0 0 C3.9379989 0.11154263 7.87518032 0.24175737 11.8125 0.375 C13.46282227 0.42140625 13.46282227 0.42140625 15.14648438 0.46875 C22.27535453 0.72109939 29.01845093 1.57155547 36 3 C37.62463326 3.27302464 39.24958016 3.54419788 40.875 3.8125 C45.11224829 4.75831435 47.17389294 6.67516817 50 10 C50.99 10.66 51.98 11.32 53 12 C53.38929201 13.65449105 53.708776 15.32546201 54 17 C54.49628906 18.16917969 54.99257813 19.33835937 55.50390625 20.54296875 C57.36333277 25.43162276 57.49757659 30.00009949 57.4375 35.1875 C57.42920166 36.11224121 57.42090332 37.03698242 57.41235352 37.98974609 C57.02824837 53.64100557 50.58379283 65.70443163 40 77 C39.319375 77.7425 38.63875 78.485 37.9375 79.25 C33.53814031 83.2236152 29.89715575 84.42184748 24 85 C24 85.66 24 86.32 24 87 C23.1028125 86.7215625 23.1028125 86.7215625 22.1875 86.4375 C19.83591238 85.77906313 19.83591238 85.77906313 17 87 C15.37280518 87.08143855 13.74248281 87.1075302 12.11328125 87.09765625 C11.17548828 87.09443359 10.23769531 87.09121094 9.27148438 87.08789062 C7.80678711 87.07532227 7.80678711 87.07532227 6.3125 87.0625 C5.32443359 87.05798828 4.33636719 87.05347656 3.31835938 87.04882812 C0.87884526 87.03704303 -1.56054689 87.02059011 -4 87 C-3.01592689 88.20495909 -3.01592689 88.20495909 -1.14233398 88.11352539 C-0.35157471 88.10828857 0.43918457 88.10305176 1.25390625 88.09765625 C2.10791016 88.09443359 2.96191406 88.09121094 3.84179688 88.08789062 C4.73962891 88.07951172 5.63746094 88.07113281 6.5625 88.0625 C7.91504883 88.05573242 7.91504883 88.05573242 9.29492188 88.04882812 C11.53001314 88.03700225 13.76497437 88.0205222 16 88 C16 88.33 16 88.66 16 89 C10.06 89.495 10.06 89.495 4 90 C4.33 90.99 4.66 91.98 5 93 C4.96380561 94.77352512 4.85118446 96.54617365 4.6875 98.3125 C4.60886719 99.23675781 4.53023437 100.16101563 4.44921875 101.11328125 C4 104 4 104 2 110 C-6.25 109.67 -14.5 109.34 -23 109 C-23.93195116 105.27219537 -24.06548312 104.24426507 -23.2538147 100.75624084 C-23.06310898 99.91655258 -22.87240326 99.07686432 -22.67591858 98.21173096 C-22.45882736 97.29889343 -22.24173615 96.38605591 -22.01806641 95.44555664 C-21.7954866 94.47764694 -21.5729068 93.50973724 -21.34358215 92.51249695 C-20.60482595 89.3096618 -19.85322141 86.10998564 -19.1015625 82.91015625 C-18.58604742 80.68601555 -18.07135924 78.46168303 -17.5574646 76.23716736 C-16.20130852 70.3764273 -14.83435221 64.51825862 -13.46502686 58.6605835 C-12.07471906 52.70548396 -10.69378971 46.74821221 -9.3125 40.79101562 C-7.7601249 34.09674024 -6.20687428 27.40268486 -4.6456604 20.71046448 C-4.40811539 19.69133972 -4.17057037 18.67221497 -3.92582703 17.62220764 C-3.48291502 15.72258577 -3.03939407 13.82310573 -2.59513855 11.92379761 C-1.67119105 7.95918538 -0.75992807 4.00017243 0 0 Z M13 26 C13 26.33 13 26.66 13 27 C16.96 27 20.92 27 25 27 C25 26.67 25 26.34 25 26 C21.04 26 17.08 26 13 26 Z M21.9375 27.5 C20.55884766 27.63921875 20.55884766 27.63921875 19.15234375 27.78125 C18.08693359 27.88953125 18.08693359 27.88953125 17 28 C17.66 28.33 18.32 28.66 19 29 C18.50077449 35.86435071 17.06590234 42.31873087 15.37207031 48.97045898 C14.43830563 52.72307934 13.76362694 56.12653172 14 60 C17.86464681 60.22083696 20.60288868 59.91631921 24 58 C29.33832005 52.03364229 30.62270603 43.89870438 31.375 36.125 C30.94604879 32.55040659 29.80948445 30.09120261 28 27 C25.9747164 27 23.95002599 27.2961999 21.9375 27.5 Z M13 60 C14 63 14 63 14 63 Z " fill="#00E458" transform="translate(243,0)"/>
<path d="M0 0 C0.33 0 0.66 0 1 0 C1.15387079 11.90888462 1.30205178 23.81782512 1.4429636 35.72687054 C1.50857301 41.25667383 1.57614418 46.78643867 1.64819336 52.31616211 C1.71764878 57.65234927 1.78195797 62.98857589 1.84269524 68.32486916 C1.86677609 70.36104396 1.89271312 72.39719768 1.92053413 74.43332481 C1.95917557 77.28453655 1.99122486 80.13575175 2.02172852 82.98706055 C2.03467453 83.82935211 2.04762054 84.67164368 2.06095886 85.53945923 C2.09671076 89.50584876 1.99711507 93.12727329 1 97 C0.67 97 0.34 97 0 97 C0 64.99 0 32.98 0 0 Z " fill="#00E459" transform="translate(219,3)"/>
<path d="M0 0 C8.25 0 16.5 0 25 0 C25 0.33 25 0.66 25 1 C16.75 1 8.5 1 0 1 C0 0.67 0 0.34 0 0 Z " fill="#00E559" transform="translate(55,40)"/>
<path d="M0 0 C7.92 0 15.84 0 24 0 C24 0.33 24 0.66 24 1 C16.08 1 8.16 1 0 1 C0 0.67 0 0.34 0 0 Z " fill="#00E558" transform="translate(128,35)"/>
<path d="M0 0 C0.33 0 0.66 0 1 0 C1 5.28 1 10.56 1 16 C0.67 16 0.34 16 0 16 C0 10.72 0 5.44 0 0 Z " fill="#00E459" transform="translate(27,60)"/>
<path d="M0 0 C0.33 0 0.66 0 1 0 C1 5.28 1 10.56 1 16 C0.67 16 0.34 16 0 16 C0 10.72 0 5.44 0 0 Z " fill="#00E459" transform="translate(190,47)"/>
<path d="M0 0 C0.33 0.66 0.66 1.32 1 2 C-1 5 -1 5 -3.125 5.6875 C-3.74375 5.790625 -4.3625 5.89375 -5 6 C-3.35 4.02 -1.7 2.04 0 0 Z " fill="#00E459" transform="translate(135,98)"/>
<path d="M0 0 C0.33 0 0.66 0 1 0 C1 3.3 1 6.6 1 10 C0.67 10 0.34 10 0 10 C0 6.7 0 3.4 0 0 Z " fill="#00E559" transform="translate(82,28)"/>
<path d="M0 0 C0.33 0 0.66 0 1 0 C1 2.64 1 5.28 1 8 C0.67 8 0.34 8 0 8 C0 5.36 0 2.72 0 0 Z " fill="#00E559" transform="translate(111,76)"/>
<path d="M0 0 C0.33 0 0.66 0 1 0 C1 2.64 1 5.28 1 8 C0.67 8 0.34 8 0 8 C0 5.36 0 2.72 0 0 Z " fill="#00E459" transform="translate(116,26)"/>
<path d="M0 0 C0.99 0.495 0.99 0.495 2 1 C1.34 2.32 0.68 3.64 0 5 C0 3.35 0 1.7 0 0 Z " fill="#00E559" transform="translate(141,82)"/>
<path d="M0 0 C0.33 0 0.66 0 1 0 C1 1.65 1 3.3 1 5 C0.34 5 -0.32 5 -1 5 C-0.67 3.35 -0.34 1.7 0 0 Z " fill="#00E559" transform="translate(191,38)"/>
<path d="M0 0 C0.33 0 0.66 0 1 0 C1 2.31 1 4.62 1 7 C0.67 7 0.34 7 0 7 C0 4.69 0 2.38 0 0 Z " fill="#00E458" transform="translate(272,33)"/>
<path d="M0 0 C0.33 0 0.66 0 1 0 C1 2.31 1 4.62 1 7 C0.67 7 0.34 7 0 7 C0 4.69 0 2.38 0 0 Z " fill="#00E559" transform="translate(85,29)"/>
<path d="M0 0 C0.33 0 0.66 0 1 0 C1 2.31 1 4.62 1 7 C0.67 7 0.34 7 0 7 C0 4.69 0 2.38 0 0 Z " fill="#00E459" transform="translate(154,22)"/>
<path d="M0 0 C0.33 0 0.66 0 1 0 C1 1.98 1 3.96 1 6 C0.67 6 0.34 6 0 6 C0 4.02 0 2.04 0 0 Z " fill="#00E559" transform="translate(249,93)"/>
<path d="M0 0 C0.33 0 0.66 0 1 0 C1 1.98 1 3.96 1 6 C0.67 6 0.34 6 0 6 C0 4.02 0 2.04 0 0 Z " fill="#00E559" transform="translate(125,27)"/>
<path d="M0 0 C1.98 0 3.96 0 6 0 C6 0.33 6 0.66 6 1 C4.02 1 2.04 1 0 1 C0 0.67 0 0.34 0 0 Z " fill="#00E458" transform="translate(269,0)"/>
<path d="M0 0 C0.33 0 0.66 0 1 0 C1 1.65 1 3.3 1 5 C0.67 5 0.34 5 0 5 C0 3.35 0 1.7 0 0 Z " fill="#00E559" transform="translate(221,87)"/>
<path d="M0 0 C0.33 0 0.66 0 1 0 C1 1.65 1 3.3 1 5 C0.67 5 0.34 5 0 5 C0 3.35 0 1.7 0 0 Z " fill="#00E558" transform="translate(224,74)"/>
<path d="M0 0 C0.33 0 0.66 0 1 0 C1 1.65 1 3.3 1 5 C0.67 5 0.34 5 0 5 C0 3.35 0 1.7 0 0 Z " fill="#00E559" transform="translate(142,75)"/>
<path d="M0 0 C0.33 0 0.66 0 1 0 C1 1.65 1 3.3 1 5 C0.67 5 0.34 5 0 5 C0 3.35 0 1.7 0 0 Z " fill="#00E558" transform="translate(141,68)"/>
<path d="M0 0 C0.33 0 0.66 0 1 0 C1 1.65 1 3.3 1 5 C0.67 5 0.34 5 0 5 C0 3.35 0 1.7 0 0 Z " fill="#00E559" transform="translate(227,61)"/>
<path d="M0 0 C0.33 0 0.66 0 1 0 C1 1.65 1 3.3 1 5 C0.67 5 0.34 5 0 5 C0 3.35 0 1.7 0 0 Z " fill="#00E559" transform="translate(230,48)"/>
<path d="M0 0 C0.33 0 0.66 0 1 0 C1 1.65 1 3.3 1 5 C0.67 5 0.34 5 0 5 C0 3.35 0 1.7 0 0 Z " fill="#00E558" transform="translate(261,42)"/>
<path d="M0 0 C0.33 0 0.66 0 1 0 C1 1.65 1 3.3 1 5 C0.67 5 0.34 5 0 5 C0 3.35 0 1.7 0 0 Z " fill="#00E558" transform="translate(233,35)"/>
<path d="M0 0 C0.33 0 0.66 0 1 0 C1 1.65 1 3.3 1 5 C0.67 5 0.34 5 0 5 C0 3.35 0 1.7 0 0 Z " fill="#00E559" transform="translate(86,37)"/>
<path d="M0 0 C0.33 0 0.66 0 1 0 C1 1.65 1 3.3 1 5 C0.67 5 0.34 5 0 5 C0 3.35 0 1.7 0 0 Z " fill="#00E559" transform="translate(52,33)"/>
<path d="M0 0 C0.33 0 0.66 0 1 0 C1 1.65 1 3.3 1 5 C0.67 5 0.34 5 0 5 C0 3.35 0 1.7 0 0 Z " fill="#00E558" transform="translate(236,22)"/>
<path d="M0 0 C0.33 0 0.66 0 1 0 C1 1.65 1 3.3 1 5 C0.67 5 0.34 5 0 5 C0 3.35 0 1.7 0 0 Z " fill="#00E559" transform="translate(81,22)"/>
<path d="M0 0 C0.33 0 0.66 0 1 0 C1 1.65 1 3.3 1 5 C0.67 5 0.34 5 0 5 C0 3.35 0 1.7 0 0 Z " fill="#00E558" transform="translate(239,9)"/>
<path d="M0 0 C1 4 1 4 1 4 Z " fill="#00E458" transform="translate(248,99)"/>
<path d="M0 0 C1 4 1 4 1 4 Z " fill="#00E559" transform="translate(222,83)"/>
<path d="M0 0 C1 4 1 4 1 4 Z " fill="#00E559" transform="translate(225,70)"/>
<path d="M0 0 C1 4 1 4 1 4 Z " fill="#00E559" transform="translate(86,63)"/>
<path d="M0 0 C1 4 1 4 1 4 Z " fill="#00E559" transform="translate(87,59)"/>
<path d="M0 0 C1 4 1 4 1 4 Z " fill="#00E559" transform="translate(41,58)"/>
<path d="M0 0 C1 4 1 4 1 4 Z " fill="#00E559" transform="translate(228,57)"/>
<path d="M0 0 C1 4 1 4 1 4 Z " fill="#00E458" transform="translate(28,55)"/>
<path d="M0 0 C1 4 1 4 1 4 Z " fill="#00E459" transform="translate(89,50)"/>
<path d="M0 0 C1 4 1 4 1 4 Z " fill="#00E459" transform="translate(30,47)"/>
<path d="M0 0 C1 4 1 4 1 4 Z " fill="#00E559" transform="translate(0,48)"/>
<path d="M0 0 C1 4 1 4 1 4 Z " fill="#00E459" transform="translate(260,47)"/>
<path d="M0 0 C1 4 1 4 1 4 Z " fill="#00E459" transform="translate(231,44)"/>
<path d="M0 0 C1 4 1 4 1 4 Z " fill="#00E559" transform="translate(271,41)"/>
<path d="M0 0 C1 4 1 4 1 4 Z " fill="#00E458" transform="translate(232,40)"/>
<path d="M0 0 C1 4 1 4 1 4 Z " fill="#00E558" transform="translate(263,34)"/>
<path d="M0 0 C1 4 1 4 1 4 Z " fill="#00E558" transform="translate(234,31)"/>
<path d="M0 0 C1 4 1 4 1 4 Z " fill="#00E559" transform="translate(86,23)"/>
<path d="M0 0 C1 4 1 4 1 4 Z " fill="#00E559" transform="translate(237,18)"/>
<path d="M0 0 C1 4 1 4 1 4 Z " fill="#00E558" transform="translate(153,17)"/>
<path d="M0 0 C1 4 1 4 1 4 Z " fill="#00E559" transform="translate(240,5)"/>
<path d="" fill="#00E559" transform="translate(0,0)"/>
<path d="" fill="#00E559" transform="translate(0,0)"/>
<path d="" fill="#00E558" transform="translate(0,0)"/>
<path d="" fill="#00E559" transform="translate(0,0)"/>
<path d="" fill="#00E559" transform="translate(0,0)"/>
<path d="" fill="#00E559" transform="translate(0,0)"/>
<path d="M0 0 C3 1 3 1 3 1 Z " fill="#00E459" transform="translate(260,87)"/>
<path d="" fill="#00E559" transform="translate(0,0)"/>
<path d="" fill="#00E559" transform="translate(0,0)"/>
<path d="" fill="#00E559" transform="translate(0,0)"/>
<path d="" fill="#00E558" transform="translate(0,0)"/>
<path d="" fill="#00E458" transform="translate(0,0)"/>
<path d="" fill="#00E559" transform="translate(0,0)"/>
<path d="" fill="#00E558" transform="translate(0,0)"/>
<path d="" fill="#00E558" transform="translate(0,0)"/>
<path d="" fill="#00E459" transform="translate(0,0)"/>
<path d="" fill="#00E559" transform="translate(0,0)"/>
<path d="" fill="#00E559" transform="translate(0,0)"/>
<path d="" fill="#00E459" transform="translate(0,0)"/>
<path d="" fill="#00E559" transform="translate(0,0)"/>
<path d="" fill="#00E559" transform="translate(0,0)"/>
<path d="" fill="#00E558" transform="translate(0,0)"/>
<path d="" fill="#00E559" transform="translate(0,0)"/>
<path d="" fill="#00E559" transform="translate(0,0)"/>
<path d="" fill="#00E558" transform="translate(0,0)"/>
<path d="" fill="#00E559" transform="translate(0,0)"/>
<path d="" fill="#00E559" transform="translate(0,0)"/>
<path d="" fill="#00E559" transform="translate(0,0)"/>
<path d="" fill="#00E658" transform="translate(0,0)"/>
<path d="" fill="#00E559" transform="translate(0,0)"/>
<path d="" fill="#00E559" transform="translate(0,0)"/>
<path d="" fill="#00E559" transform="translate(0,0)"/>
<path d="" fill="#00E459" transform="translate(0,0)"/>
<path d="" fill="#00E559" transform="translate(0,0)"/>
<path d="" fill="#00E559" transform="translate(0,0)"/>
<path d="" fill="#00E558" transform="translate(0,0)"/>
<path d="" fill="#00E559" transform="translate(0,0)"/>
<path d="" fill="#00E559" transform="translate(0,0)"/>
<path d="M0 0 C3 1 3 1 3 1 Z " fill="#00E559" transform="translate(279,2)"/>
<path d="M0 0 C3 1 3 1 3 1 Z " fill="#00E559" transform="translate(276,1)"/>
<path d="M0 0 C3 1 3 1 3 1 Z " fill="#00E559" transform="translate(36,0)"/>
<path d="M0 0 C2 1 2 1 2 1 Z " fill="#00E559" transform="translate(120,109)"/>
<path d="M0 0 C2 1 2 1 2 1 Z " fill="#00E559" transform="translate(91,109)"/>
<path d="" fill="#00E559" transform="translate(0,0)"/>
<path d="M0 0 C2 1 2 1 2 1 Z " fill="#00E558" transform="translate(50,108)"/>
<path d="" fill="#00E559" transform="translate(0,0)"/>
<path d="" fill="#00E559" transform="translate(0,0)"/>
<path d="" fill="#00E559" transform="translate(0,0)"/>
<path d="" fill="#00E559" transform="translate(0,0)"/>
<path d="" fill="#00E559" transform="translate(0,0)"/>
<path d="" fill="#00E559" transform="translate(0,0)"/>
<path d="" fill="#00E558" transform="translate(0,0)"/>
<path d="" fill="#00E559" transform="translate(0,0)"/>
<path d="" fill="#00E559" transform="translate(0,0)"/>
<path d="" fill="#00E559" transform="translate(0,0)"/>
<path d="" fill="#00E458" transform="translate(0,0)"/>
<path d="" fill="#00E559" transform="translate(0,0)"/>
<path d="" fill="#00E559" transform="translate(0,0)"/>
<path d="" fill="#00E459" transform="translate(0,0)"/>
<path d="" fill="#00E558" transform="translate(0,0)"/>
<path d="" fill="#00E558" transform="translate(0,0)"/>
<path d="M0 0 C2 1 2 1 2 1 Z " fill="#00E559" transform="translate(267,85)"/>
<path d="" fill="#00E559" transform="translate(0,0)"/>
<path d="M0 0 C2 1 2 1 2 1 Z " fill="#00E559" transform="translate(270,84)"/>
<path d="" fill="#00E559" transform="translate(0,0)"/>
<path d="" fill="#00E559" transform="translate(0,0)"/>
<path d="" fill="#00E459" transform="translate(0,0)"/>
<path d="" fill="#00E45A" transform="translate(0,0)"/>
<path d="" fill="#00E559" transform="translate(0,0)"/>
<path d="" fill="#00E559" transform="translate(0,0)"/>
<path d="" fill="#00E559" transform="translate(0,0)"/>
<path d="" fill="#00E559" transform="translate(0,0)"/>
<path d="M0 0 C2 1 2 1 2 1 Z " fill="#00E559" transform="translate(100,74)"/>
<path d="" fill="#00E559" transform="translate(0,0)"/>
<path d="" fill="#00E559" transform="translate(0,0)"/>
<path d="" fill="#00E459" transform="translate(0,0)"/>
<path d="" fill="#00E558" transform="translate(0,0)"/>
<path d="" fill="#00E559" transform="translate(0,0)"/>
<path d="" fill="#00E559" transform="translate(0,0)"/>
<path d="" fill="#00E558" transform="translate(0,0)"/>
<path d="" fill="#00E559" transform="translate(0,0)"/>
<path d="" fill="#00E559" transform="translate(0,0)"/>
<path d="" fill="#00E559" transform="translate(0,0)"/>
<path d="" fill="#00E559" transform="translate(0,0)"/>
<path d="" fill="#00E558" transform="translate(0,0)"/>
<path d="" fill="#00E559" transform="translate(0,0)"/>
<path d="" fill="#00E459" transform="translate(0,0)"/>
<path d="" fill="#00E559" transform="translate(0,0)"/>
<path d="" fill="#00E559" transform="translate(0,0)"/>
<path d="" fill="#00E559" transform="translate(0,0)"/>
<path d="" fill="#00E559" transform="translate(0,0)"/>
<path d="" fill="#00E459" transform="translate(0,0)"/>
<path d="" fill="#00E559" transform="translate(0,0)"/>
<path d="" fill="#00E559" transform="translate(0,0)"/>
<path d="" fill="#00E559" transform="translate(0,0)"/>
<path d="" fill="#00E559" transform="translate(0,0)"/>
<path d="" fill="#00E559" transform="translate(0,0)"/>
<path d="" fill="#00E559" transform="translate(0,0)"/>
<path d="" fill="#00E559" transform="translate(0,0)"/>
<path d="" fill="#00E559" transform="translate(0,0)"/>
<path d="" fill="#00E559" transform="translate(0,0)"/>
<path d="" fill="#00E559" transform="translate(0,0)"/>
<path d="" fill="#00E559" transform="translate(0,0)"/>
<path d="" fill="#00E559" transform="translate(0,0)"/>
<path d="" fill="#00E559" transform="translate(0,0)"/>
<path d="" fill="#00E559" transform="translate(0,0)"/>
<path d="" fill="#00E559" transform="translate(0,0)"/>
<path d="" fill="#00E559" transform="translate(0,0)"/>
<path d="" fill="#00E559" transform="translate(0,0)"/>
<path d="" fill="#00E459" transform="translate(0,0)"/>
<path d="" fill="#00E559" transform="translate(0,0)"/>
<path d="" fill="#00E559" transform="translate(0,0)"/>
<path d="" fill="#00E558" transform="translate(0,0)"/>
<path d="" fill="#00E559" transform="translate(0,0)"/>
<path d="" fill="#00E459" transform="translate(0,0)"/>
<path d="" fill="#00E559" transform="translate(0,0)"/>
<path d="" fill="#00E559" transform="translate(0,0)"/>
<path d="" fill="#00E558" transform="translate(0,0)"/>
<path d="" fill="#00E559" transform="translate(0,0)"/>
<path d="" fill="#00E558" transform="translate(0,0)"/>
<path d="" fill="#00E559" transform="translate(0,0)"/>
<path d="" fill="#00E559" transform="translate(0,0)"/>
<path d="" fill="#00E558" transform="translate(0,0)"/>
<path d="" fill="#00E559" transform="translate(0,0)"/>
<path d="" fill="#00E558" transform="translate(0,0)"/>
<path d="" fill="#00E458" transform="translate(0,0)"/>
<path d="" fill="#00E559" transform="translate(0,0)"/>
<path d="" fill="#00E459" transform="translate(0,0)"/>
<path d="" fill="#00E559" transform="translate(0,0)"/>
<path d="" fill="#00E559" transform="translate(0,0)"/>
<path d="" fill="#00E559" transform="translate(0,0)"/>
<path d="" fill="#00E559" transform="translate(0,0)"/>
<path d="" fill="#00E559" transform="translate(0,0)"/>
<path d="" fill="#00E559" transform="translate(0,0)"/>
<path d="" fill="#00E559" transform="translate(0,0)"/>
<path d="" fill="#00E559" transform="translate(0,0)"/>
<path d="" fill="#00E559" transform="translate(0,0)"/>
<path d="" fill="#00E559" transform="translate(0,0)"/>
<path d="" fill="#00E459" transform="translate(0,0)"/>
<path d="" fill="#00E559" transform="translate(0,0)"/>
<path d="" fill="#00E559" transform="translate(0,0)"/>
<path d="" fill="#00E559" transform="translate(0,0)"/>
<path d="" fill="#00E559" transform="translate(0,0)"/>
<path d="" fill="#00E559" transform="translate(0,0)"/>
<path d="" fill="#00E559" transform="translate(0,0)"/>
<path d="" fill="#00E559" transform="translate(0,0)"/>
<path d="" fill="#00E559" transform="translate(0,0)"/>
<path d="" fill="#00E458" transform="translate(0,0)"/>
<path d="" fill="#00E459" transform="translate(0,0)"/>
<path d="" fill="#00E558" transform="translate(0,0)"/>
<path d="" fill="#00E559" transform="translate(0,0)"/>
<path d="" fill="#00E559" transform="translate(0,0)"/>
<path d="" fill="#00E559" transform="translate(0,0)"/>
<path d="" fill="#00E559" transform="translate(0,0)"/>
<path d="" fill="#00E559" transform="translate(0,0)"/>
<path d="" fill="#00E459" transform="translate(0,0)"/>
<path d="" fill="#00E559" transform="translate(0,0)"/>
<path d="M0 0 C2 1 2 1 2 1 Z " fill="#00E559" transform="translate(282,3)"/>
<path d="" fill="#00E559" transform="translate(0,0)"/>
<path d="" fill="#00E559" transform="translate(0,0)"/>
<path d="M0 0 C2 1 2 1 2 1 Z " fill="#00E559" transform="translate(105,1)"/>
<path d="M0 0 C2 1 2 1 2 1 Z " fill="#00E559" transform="translate(64,1)"/>
<path d="M0 0 C2 1 2 1 2 1 Z " fill="#00E559" transform="translate(34,1)"/>
<path d="M0 0 C2 1 2 1 2 1 Z " fill="#00E559" transform="translate(107,0)"/>
<path d="M0 0 C2 1 2 1 2 1 Z " fill="#00E559" transform="translate(62,0)"/>
<path d="" fill="#00E558" transform="translate(0,0)"/>
<path d="" fill="#00E558" transform="translate(0,0)"/>
<path d="" fill="#00E559" transform="translate(0,0)"/>
<path d="" fill="#00E559" transform="translate(0,0)"/>
<path d="" fill="#00E658" transform="translate(0,0)"/>
<path d="" fill="#00E55A" transform="translate(0,0)"/>
<path d="" fill="#00E559" transform="translate(0,0)"/>
<path d="" fill="#00E559" transform="translate(0,0)"/>
<path d="" fill="#00E559" transform="translate(0,0)"/>
<path d="" fill="#00E559" transform="translate(0,0)"/>
<path d="" fill="#00E55A" transform="translate(0,0)"/>
<path d="" fill="#00E559" transform="translate(0,0)"/>
<path d="" fill="#00E658" transform="translate(0,0)"/>
<path d="" fill="#00E459" transform="translate(0,0)"/>
<path d="" fill="#00E559" transform="translate(0,0)"/>
<path d="" fill="#00E559" transform="translate(0,0)"/>
<path d="" fill="#00E559" transform="translate(0,0)"/>
<path d="" fill="#00E459" transform="translate(0,0)"/>
<path d="" fill="#00E559" transform="translate(0,0)"/>
<path d="" fill="#00E559" transform="translate(0,0)"/>
<path d="" fill="#00E559" transform="translate(0,0)"/>
<path d="" fill="#00E559" transform="translate(0,0)"/>
<path d="" fill="#00E559" transform="translate(0,0)"/>
<path d="" fill="#00E559" transform="translate(0,0)"/>
<path d="" fill="#00E559" transform="translate(0,0)"/>
<path d="" fill="#00E559" transform="translate(0,0)"/>
<path d="" fill="#00E559" transform="translate(0,0)"/>
<path d="" fill="#00E559" transform="translate(0,0)"/>
<path d="" fill="#00E559" transform="translate(0,0)"/>
<path d="" fill="#00E559" transform="translate(0,0)"/>
<path d="" fill="#00E559" transform="translate(0,0)"/>
<path d="" fill="#00E559" transform="translate(0,0)"/>
<path d="" fill="#00E559" transform="translate(0,0)"/>
<path d="" fill="#00E559" transform="translate(0,0)"/>
<path d="" fill="#00E559" transform="translate(0,0)"/>
<path d="" fill="#00E559" transform="translate(0,0)"/>
<path d="" fill="#00E559" transform="translate(0,0)"/>
<path d="" fill="#00E559" transform="translate(0,0)"/>
<path d="" fill="#00E559" transform="translate(0,0)"/>
<path d="" fill="#00E559" transform="translate(0,0)"/>
<path d="" fill="#00E659" transform="translate(0,0)"/>
<path d="" fill="#00E559" transform="translate(0,0)"/>
<path d="" fill="#00E559" transform="translate(0,0)"/>
<path d="" fill="#00E659" transform="translate(0,0)"/>
<path d="" fill="#00E559" transform="translate(0,0)"/>
<path d="" fill="#00E559" transform="translate(0,0)"/>
<path d="" fill="#00E559" transform="translate(0,0)"/>
<path d="" fill="#00E559" transform="translate(0,0)"/>
<path d="" fill="#00E559" transform="translate(0,0)"/>
<path d="" fill="#00E559" transform="translate(0,0)"/>
<path d="" fill="#00E559" transform="translate(0,0)"/>
<path d="" fill="#00E559" transform="translate(0,0)"/>
<path d="" fill="#00E559" transform="translate(0,0)"/>
<path d="" fill="#00E559" transform="translate(0,0)"/>
<path d="" fill="#00E559" transform="translate(0,0)"/>
<path d="" fill="#00E559" transform="translate(0,0)"/>
<path d="" fill="#00E559" transform="translate(0,0)"/>
<path d="" fill="#00E559" transform="translate(0,0)"/>
<path d="" fill="#00E559" transform="translate(0,0)"/>
<path d="" fill="#00E559" transform="translate(0,0)"/>
<path d="" fill="#00E559" transform="translate(0,0)"/>
<path d="" fill="#00E559" transform="translate(0,0)"/>
<path d="" fill="#00E559" transform="translate(0,0)"/>
<path d="" fill="#00E559" transform="translate(0,0)"/>
<path d="" fill="#00E559" transform="translate(0,0)"/>
<path d="" fill="#00E559" transform="translate(0,0)"/>
<path d="" fill="#00E559" transform="translate(0,0)"/>
<path d="" fill="#00E559" transform="translate(0,0)"/>
<path d="" fill="#00E559" transform="translate(0,0)"/>
<path d="" fill="#00E559" transform="translate(0,0)"/>
<path d="" fill="#00E559" transform="translate(0,0)"/>
<path d="" fill="#00E559" transform="translate(0,0)"/>
<path d="" fill="#00E659" transform="translate(0,0)"/>
<path d="" fill="#00E559" transform="translate(0,0)"/>
<path d="" fill="#00E559" transform="translate(0,0)"/>
<path d="" fill="#00E559" transform="translate(0,0)"/>
<path d="" fill="#00E559" transform="translate(0,0)"/>
<path d="" fill="#00E559" transform="translate(0,0)"/>
<path d="" fill="#00E559" transform="translate(0,0)"/>
<path d="" fill="#00E559" transform="translate(0,0)"/>
<path d="" fill="#00E559" transform="translate(0,0)"/>
<path d="" fill="#00E559" transform="translate(0,0)"/>
<path d="" fill="#00E559" transform="translate(0,0)"/>
<path d="" fill="#00E459" transform="translate(0,0)"/>
<path d="" fill="#00E559" transform="translate(0,0)"/>
<path d="" fill="#00E559" transform="translate(0,0)"/>
<path d="" fill="#00E559" transform="translate(0,0)"/>
<path d="" fill="#00E659" transform="translate(0,0)"/>
<path d="" fill="#00E559" transform="translate(0,0)"/>
<path d="" fill="#00E559" transform="translate(0,0)"/>
<path d="" fill="#00E559" transform="translate(0,0)"/>
<path d="" fill="#00E559" transform="translate(0,0)"/>
<path d="" fill="#00E558" transform="translate(0,0)"/>
<path d="" fill="#00E559" transform="translate(0,0)"/>
<path d="" fill="#00E559" transform="translate(0,0)"/>
<path d="" fill="#00E559" transform="translate(0,0)"/>
<path d="" fill="#00E558" transform="translate(0,0)"/>
<path d="" fill="#00E559" transform="translate(0,0)"/>
<path d="" fill="#00E559" transform="translate(0,0)"/>
<path d="" fill="#00E559" transform="translate(0,0)"/>
<path d="" fill="#00E559" transform="translate(0,0)"/>
<path d="" fill="#00E559" transform="translate(0,0)"/>
<path d="" fill="#00E559" transform="translate(0,0)"/>
<path d="" fill="#00E559" transform="translate(0,0)"/>
<path d="" fill="#00E559" transform="translate(0,0)"/>
<path d="" fill="#00E559" transform="translate(0,0)"/>
<path d="" fill="#00E558" transform="translate(0,0)"/>
<path d="" fill="#00E559" transform="translate(0,0)"/>
<path d="" fill="#00E459" transform="translate(0,0)"/>
<path d="" fill="#00E559" transform="translate(0,0)"/>
<path d="" fill="#00E559" transform="translate(0,0)"/>
<path d="" fill="#00E559" transform="translate(0,0)"/>
<path d="" fill="#00E559" transform="translate(0,0)"/>
<path d="" fill="#00E559" transform="translate(0,0)"/>
<path d="" fill="#00E559" transform="translate(0,0)"/>
<path d="" fill="#00E558" transform="translate(0,0)"/>
<path d="" fill="#00E659" transform="translate(0,0)"/>
<path d="" fill="#00E559" transform="translate(0,0)"/>
</svg>
