<?xml version="1.0" encoding="UTF-8"?>
<svg version="1.1" xmlns="http://www.w3.org/2000/svg" width="991" height="512">
<path d="M0 0 C7.30345987 5.70632383 10.94020956 12.87142918 14.46044922 21.26806641 C15.2337192 23.05888827 16.00699976 24.84970558 16.78060913 26.64038086 C17.61595309 28.58124356 18.44405031 30.52506452 19.27050781 32.46972656 C21.09078806 36.74863719 22.93972371 41.01485566 24.79248047 45.27978516 C27.48224093 51.47579714 30.16491652 57.6748 32.83935547 63.87744141 C33.1796579 64.66666489 33.51996033 65.45588837 33.87057495 66.26902771 C34.566675 67.88352414 35.26275023 69.49803127 35.95880127 71.11254883 C38.85891888 77.838626 41.76166008 84.56356868 44.66638184 91.28765869 C45.68099277 93.63734957 46.69430324 95.9875981 47.70751953 98.33789062 C51.06735736 106.12241129 54.46996503 113.88157003 58.02294922 121.58056641 C66.09913543 104.01940587 74.12490638 86.43810508 81.96044922 68.76806641 C82.61584261 67.29205456 83.27127902 65.81606182 83.92675781 64.34008789 C87.1086945 57.17123874 90.28062851 49.99813777 93.43696594 42.81797791 C94.96488874 39.34670851 96.49966405 35.87849396 98.03567505 32.41079712 C98.76720175 30.75492188 99.49570451 29.09770685 100.22091675 27.4390564 C111.63158115 1.34853171 111.63158115 1.34853171 123.59326172 -3.45068359 C133.34934702 -6.45255599 142.01642289 -5.86138744 151.83544922 -3.66943359 C152.91173584 -3.4343811 152.91173584 -3.4343811 154.00976562 -3.19458008 C160.88995617 -1.5214319 166.02940476 1.59024971 170.02294922 7.58056641 C171.61869606 11.66149098 172.27159707 15.05666952 172.26345825 19.42721558 C172.26758224 21.14345375 172.26758224 21.14345375 172.27178955 22.8943634 C172.26100372 24.75553047 172.26100372 24.75553047 172.25 26.65429688 C172.25029205 27.97190506 172.25058411 29.28951324 172.25088501 30.64704895 C172.2514574 34.2478735 172.23972164 37.84856403 172.22573709 41.44935751 C172.21321068 45.21697397 172.21205773 48.98459371 172.20968628 52.75222778 C172.20347712 59.88129172 172.18707395 67.01029411 172.1669873 74.13933098 C172.14461072 82.2578076 172.13363045 90.37628719 172.12359643 98.49478698 C172.10270721 115.19008847 172.06603804 131.88530521 172.02294922 148.58056641 C160.80294922 148.58056641 149.58294922 148.58056641 138.02294922 148.58056641 C137.69294922 108.32056641 137.36294922 68.06056641 137.02294922 26.58056641 C132.73294922 36.15056641 128.44294922 45.72056641 124.02294922 55.58056641 C120.64597884 63.08988213 117.26766304 70.59857589 113.88531494 78.10546875 C109.99675127 86.7362878 106.11067896 95.3679755 102.26513672 104.01806641 C99.2122839 110.88494354 96.12947246 117.73777302 93.02294922 124.58056641 C92.62930176 125.45680664 92.2356543 126.33304688 91.83007812 127.23583984 C87.42751623 136.9632935 83.52362526 144.63461957 73.39404297 149.22509766 C68.62157651 150.93428346 64.11210051 151.02447709 59.08544922 150.95556641 C58.24304688 150.96716797 57.40064453 150.97876953 56.53271484 150.99072266 C48.54426509 150.9538245 40.7408385 149.33355707 34.75390625 143.73461914 C32.53446202 140.97267888 30.89878643 137.9932325 29.26513672 134.86572266 C28.91743729 134.20586868 28.56973785 133.54601471 28.21150208 132.86616516 C24.74241963 126.19141824 21.67073966 119.35772049 18.66729736 112.46368408 C16.96646239 108.56088784 15.24504093 104.66715351 13.52685547 100.77197266 C13.16597839 99.9525116 12.80510132 99.13305054 12.43328857 98.28875732 C8.0718474 88.39748231 3.61037609 78.55158639 -0.85205078 68.70556641 C-1.61939595 67.01115415 -2.38673019 65.31673695 -3.15405273 63.62231445 C-8.75110097 51.27022892 -14.36546172 38.92606233 -19.97705078 26.58056641 C-20.30705078 66.84056641 -20.63705078 107.10056641 -20.97705078 148.58056641 C-32.19705078 148.58056641 -43.41705078 148.58056641 -54.97705078 148.58056641 C-55.02224187 131.50806669 -55.0590657 114.43561822 -55.08067513 97.36307526 C-55.09097657 89.43555048 -55.10501522 81.50806558 -55.12792969 73.58056641 C-55.14789827 66.66891881 -55.16077544 59.75730009 -55.16522777 52.84562445 C-55.16782929 49.1878028 -55.1739203 45.53006378 -55.18851089 41.87226868 C-55.20468764 37.78346124 -55.20502824 33.69479638 -55.20410156 29.60595703 C-55.21129211 28.40042175 -55.21848267 27.19488647 -55.22589111 25.95281982 C-55.20486052 17.37279937 -54.95166019 9.30200199 -48.97705078 2.58056641 C-35.54446155 -6.52978313 -13.905578 -9.71887353 0 0 Z " fill="#006089" transform="translate(55.97705078125,317.41943359375)"/>
<path d="M0 0 C1.4295098 -0.00322385 2.85901929 -0.00658871 4.28852844 -0.01008606 C7.27300784 -0.01603954 10.25745845 -0.01792994 13.24194336 -0.01733398 C17.02251954 -0.01723272 20.8029064 -0.03086475 24.58343792 -0.04810619 C27.53413196 -0.05935427 30.48478212 -0.0612493 33.43549538 -0.06072426 C34.8270209 -0.06188598 36.21854827 -0.06620281 37.61005211 -0.07405663 C55.87697488 -0.16749433 77.05204642 1.00034511 91.11328125 14.16796875 C97.41409671 21.70526991 99.41409991 28.74810547 99.40380859 38.41113281 C99.41052582 39.32253525 99.41724304 40.23393768 99.42416382 41.17295837 C99.44311189 44.17655947 99.44706663 47.17993666 99.44921875 50.18359375 C99.45564964 52.28098643 99.46237822 54.37837822 99.46939087 56.47576904 C99.48135621 60.87042316 99.48507253 65.26499872 99.48388672 69.65966797 C99.48368375 75.27270195 99.51096687 80.88522838 99.54543114 86.49814224 C99.56774335 90.83063032 99.57172291 95.16299717 99.57066727 99.4955368 C99.57301744 101.56385799 99.58180786 103.63218282 99.597332 105.70044708 C99.6170763 108.60306108 99.61112051 111.50459262 99.59912109 114.40722656 C99.61036011 115.25016769 99.62159912 116.09310883 99.63317871 116.96159363 C99.55590264 124.37160833 97.29049317 130.6199197 93.42578125 136.91796875 C91.20991708 139.0739447 89.04583002 140.61673494 86.46875 142.30859375 C85.6543042 142.84516602 84.8398584 143.38173828 84.00073242 143.93457031 C83.37787354 144.3415918 82.75501465 144.74861328 82.11328125 145.16796875 C84.61110698 147.52445099 87.1119494 149.87770891 89.61328125 152.23046875 C90.309375 152.88724609 91.00546875 153.54402344 91.72265625 154.22070312 C97.52223529 159.67123343 103.40362937 164.99935814 109.61328125 169.98046875 C110.43828125 170.70234375 111.26328125 171.42421875 112.11328125 172.16796875 C112.11328125 172.82796875 112.11328125 173.48796875 112.11328125 174.16796875 C106.81600669 174.49341567 101.52472719 174.72697705 96.21972656 174.88208008 C94.42279612 174.94680684 92.62653239 175.0350409 90.83203125 175.14868164 C81.61146514 175.71724891 74.1758983 176.00875247 66.93704224 169.66081238 C64.67239354 167.42894515 62.5359416 165.12230402 60.46736145 162.70812988 C58.64837539 160.63917442 56.63318066 158.84200208 54.55078125 157.04296875 C53.99261719 156.54539062 53.43445313 156.0478125 52.859375 155.53515625 C48.35073327 152.00489986 45.72940369 150.80288175 39.94921875 151.4609375 C29.40619146 152.4510281 18.85359491 152.42710618 8.27148438 152.46313477 C5.91953525 152.47467349 3.56761269 152.49515485 1.21582031 152.5246582 C-18.32607267 152.76859118 -38.80048865 152.66235096 -54.359375 138.99609375 C-61.33251368 131.65594777 -63.34278593 124.46654951 -63.29077148 114.59008789 C-63.29763474 113.66703354 -63.30449799 112.74397919 -63.31156921 111.79295349 C-63.32976614 108.76285108 -63.32600989 105.73326995 -63.3203125 102.703125 C-63.32487763 100.58377414 -63.33018419 98.46442476 -63.3361969 96.34507751 C-63.34511401 91.91106132 -63.34272067 87.47722538 -63.33276367 83.04321289 C-63.3212747 77.3763039 -63.34149193 71.71001811 -63.37068081 66.04319096 C-63.38907396 61.66869694 -63.38874413 57.29435142 -63.38304329 52.91982841 C-63.38289046 50.83115197 -63.38890262 48.74246521 -63.40133476 46.65382576 C-63.41630209 43.7272402 -63.40552548 40.80179533 -63.38842773 37.87524414 C-63.3980957 37.02249908 -63.40776367 36.16975403 -63.41772461 35.29116821 C-63.31320978 26.6978873 -60.04228202 19.35773841 -54.18359375 13.0859375 C-39.06693335 0.4630119 -18.68511232 0.01002741 0 0 Z M-25.88671875 32.16796875 C-27.4214997 35.23753065 -27.04283142 38.4583641 -27.04785156 41.82714844 C-27.05281647 42.61759552 -27.05778137 43.4080426 -27.06289673 44.22244263 C-27.07753501 46.84491845 -27.08432398 49.46733373 -27.08984375 52.08984375 C-27.09559493 53.9110718 -27.10135266 55.73229982 -27.1071167 57.55352783 C-27.11763218 61.37683393 -27.1234709 65.20011897 -27.12695312 69.0234375 C-27.13243146 73.91720974 -27.15644299 78.81070285 -27.18492508 83.70438766 C-27.20357293 87.46881922 -27.20875826 91.23318393 -27.210289 94.99765778 C-27.21331246 96.80133842 -27.22133066 98.60501797 -27.23447418 100.40865326 C-27.25157562 102.93638644 -27.24964429 105.46344298 -27.24316406 107.99121094 C-27.25237885 108.73325775 -27.26159363 109.47530457 -27.27108765 110.23983765 C-27.23325565 114.96322766 -26.37855722 118.15808731 -23.88671875 122.16796875 C-18.3649907 127.56699173 -13.57676934 129.39622412 -5.87063599 129.39456177 C-4.76871414 129.37907791 -4.76871414 129.37907791 -3.64453125 129.36328125 C-2.49197342 129.35903641 -2.49197342 129.35903641 -1.31613159 129.35470581 C1.11883646 129.34358186 3.55342587 129.31849235 5.98828125 129.29296875 C7.64713007 129.28292886 9.30598471 129.27380478 10.96484375 129.265625 C15.01446704 129.24366812 19.06381012 129.20919281 23.11328125 129.16796875 C21.93306396 127.73759277 21.93306396 127.73759277 20.72900391 126.27832031 C20.28642242 125.74192932 19.84384094 125.20553833 19.3878479 124.65289307 C17.88010838 122.89631245 16.26268018 121.40314847 14.48828125 119.91796875 C11.03717306 116.9956594 7.68137385 113.98042987 4.33984375 110.93359375 C3.83493408 110.47355957 3.33002441 110.01352539 2.80981445 109.53955078 C1.57711493 108.41626245 0.34512454 107.29219599 -0.88671875 106.16796875 C4.37841166 105.99396858 9.64184333 105.86745965 14.90917969 105.78344727 C16.69788794 105.74840305 18.48639796 105.70075074 20.27441406 105.63989258 C37.05956084 105.08319457 37.05956084 105.08319457 41.9453125 109.328125 C43.0373957 110.57741878 44.09636983 111.85675868 45.11328125 113.16796875 C46.17330405 114.20367619 47.24961062 115.22305771 48.34375 116.22265625 C49.83742966 117.64409258 51.3264807 119.0681656 52.79882812 120.51171875 C55.79931548 123.34221802 57.9617599 124.8188463 62.11328125 125.16796875 C62.91765625 124.23984375 63.72203125 123.31171875 64.55078125 122.35546875 C65.00324219 121.83339844 65.45570313 121.31132812 65.921875 120.7734375 C68.66683238 117.07449494 68.27404965 112.97942681 68.2902832 108.59472656 C68.2968544 107.82524689 68.3034256 107.05576721 68.31019592 106.26296997 C68.32991069 103.71567688 68.34158803 101.16844272 68.3515625 98.62109375 C68.35563803 97.74997704 68.35971355 96.87886032 68.36391258 95.98134613 C68.38476651 91.36972796 68.39907062 86.75813948 68.40844727 82.14648438 C68.41950455 77.39063353 68.45389839 72.63525148 68.49361897 67.87956619 C68.51980422 64.21632028 68.52814083 60.5531857 68.53172874 56.88985443 C68.53659052 55.13722318 68.54819287 53.38459676 68.56676674 51.63205719 C68.59119732 49.17392681 68.59018634 46.71700447 68.58325195 44.25878906 C68.59606201 43.54061005 68.60887207 42.82243103 68.62207031 42.08248901 C68.56596097 36.6005368 67.12849123 33.58537774 64.11328125 29.16796875 C56.11125883 22.43899535 46.70160172 22.8597607 36.77734375 22.8671875 C34.86554825 22.86075981 34.86554825 22.86075981 32.91513062 22.85420227 C30.22713301 22.8484756 27.53952149 22.84700346 24.8515625 22.85229492 C21.43350803 22.85808187 18.01599681 22.84115959 14.598032 22.81795025 C11.3036409 22.79954029 8.00927692 22.80340089 4.71484375 22.8046875 C3.50100006 22.79547775 2.28715637 22.78626801 1.03652954 22.77677917 C-9.52879814 22.83377424 -18.4960086 24.05400868 -25.88671875 32.16796875 Z " fill="#E48E00" transform="translate(662.88671875,314.83203125)"/>
<path d="M0 0 C6.85537298 3.44868661 12.94638632 6.98489369 18.42919922 12.39892578 C23.96787382 17.11328259 29.97864375 16.85203554 36.93237305 17.25195312 C76.80301504 19.72995853 114.54432762 49.46857191 140.80419922 77.96142578 C143.12177541 80.66526467 145.37339764 83.40732819 147.59326172 86.19189453 C149.04196726 88.00661579 150.5153391 89.80197804 152.01513672 91.57470703 C158.26338388 98.97394709 163.63630198 106.78843616 168.80419922 114.96142578 C169.48353516 116.02619141 170.16287109 117.09095703 170.86279297 118.18798828 C175.7306156 126.23899473 179.27941284 134.62530811 182.82080078 143.32177734 C187.74719385 155.3908835 193.24120945 167.17509724 198.80419922 178.96142578 C199.41039146 180.25314485 200.01634122 181.54497774 200.62207031 182.83691406 C202.17948787 186.15560668 203.74778909 189.46896867 205.3236084 192.77896118 C205.92851131 194.052205 206.53071277 195.3267363 207.13000488 196.60263062 C212.65134631 209.12052469 212.65134631 209.12052469 223.47387695 216.56958008 C224.1810083 216.82263916 224.88813965 217.07569824 225.61669922 217.33642578 C227.14710562 217.92955926 228.67571926 218.52733626 230.20263672 219.12939453 C230.97317383 219.43151855 231.74371094 219.73364258 232.53759766 220.04492188 C250.42193086 227.27648013 266.3022994 238.42301999 281.14404297 250.60693359 C282.82866468 251.98138672 284.53353602 253.32733001 286.24169922 254.67236328 C293.55911101 260.52755144 300.08536192 266.75528237 304.80419922 274.96142578 C304.80419922 276.28142578 304.80419922 277.60142578 304.80419922 278.96142578 C294.0520653 281.68014191 283.49576546 284.1670313 272.46826172 285.42626953 C265.79298307 286.40123027 259.30906125 288.20058271 252.80419922 289.96142578 C257.1706761 297.88577271 264.5636438 301.89721236 272.17919922 306.33642578 C278.94815381 310.28441939 284.88199835 314.81639081 290.80419922 319.96142578 C291.43583984 320.46029297 292.06748047 320.95916016 292.71826172 321.47314453 C297.35873948 325.17069416 300.85614427 329.58375799 304.52685547 334.22705078 C306.61392049 336.73296075 308.78032938 338.88562776 311.17919922 341.08642578 C315.11920583 344.86946001 316.63211621 348.68705224 317.80419922 353.96142578 C314.0448949 352.36372145 311.25907905 350.59755255 308.24169922 347.83642578 C298.75037016 339.31396585 288.30844206 333.48176388 276.91308594 327.98388672 C257.03140446 318.34456257 238.15634566 307.04959913 228.80419922 285.96142578 C228.86669922 283.89892578 228.86669922 283.89892578 229.80419922 281.96142578 C238.19446732 276.15038824 249.79352067 273.42557264 259.80419922 271.96142578 C260.54154297 271.85056641 261.27888672 271.73970703 262.03857422 271.62548828 C270.25021593 270.60592203 278.54592254 270.87520247 286.80419922 270.96142578 C282.6980481 266.51104643 278.13847819 263.25628262 273.11669922 259.89892578 C272.28017822 259.3367334 271.44365723 258.77454102 270.58178711 258.1953125 C268.84279536 257.02683294 267.1027958 255.85985194 265.36181641 254.69433594 C262.94652488 253.05785835 260.56364584 251.38384877 258.18701172 249.69189453 C248.17770848 242.64299688 238.38619366 237.85583904 226.80419922 233.96142578 C224.09108454 233.04059296 221.37882151 232.11758052 218.66894531 231.18725586 C216.92994848 230.59400516 215.18691471 230.01241316 213.43945312 229.44458008 C201.7358298 225.51525192 197.82057586 216.98618786 192.57714844 206.50976562 C189.76024401 200.77577624 187.03339764 195.00053021 184.32666016 189.21386719 C182.74648186 185.83812388 181.1544107 182.4681382 179.56201172 179.09814453 C174.80058869 168.97292439 170.10467565 158.86380063 165.94775391 148.47314453 C157.02845082 126.20016419 144.11900066 106.64267986 127.77294922 89.08251953 C125.9241041 87.09060902 124.17633315 85.04232822 122.42919922 82.96142578 C108.22556576 66.73800959 89.16084529 53.78486305 70.24169922 43.64892578 C69.51128418 43.25253906 68.78086914 42.85615234 68.02832031 42.44775391 C54.73507779 35.51417573 42.35184889 33.11390042 27.48779297 32.31103516 C19.40228292 31.71348217 14.70094981 30.5567421 8.80419922 24.96142578 C-2.79749793 16.73699492 -18.55684723 7.0014944 -33.19580078 7.96142578 C-36.26131435 9.62381574 -36.26131435 9.62381574 -37.13330078 12.02392578 C-37.33326645 21.42231237 -29.29410721 29.66428465 -23.88378906 36.65722656 C-12.76899017 51.0562131 -6.28708531 65.23056366 -0.69580078 82.46142578 C4.31639613 97.90299298 8.95805055 112.01882557 20.70263672 123.72705078 C23.7494545 126.96641839 24.70437427 128.75484598 25.07373047 133.21923828 C24.77702094 137.33877054 23.80653832 140.95360728 22.49169922 144.83642578 C22.26313232 145.54114014 22.03456543 146.24585449 21.79907227 146.97192383 C20.62021437 150.59022945 19.3764244 154.18305966 18.11669922 157.77392578 C15.02264803 167.0987559 14.44325008 176.4461566 14.49169922 186.21142578 C14.49733887 187.40292236 14.50297852 188.59441895 14.50878906 189.82202148 C14.71487623 204.78578611 17.05143638 223.28305442 26.92919922 235.33642578 C29.31722849 237.51680034 30.95264891 238.65191555 33.80419922 239.96142578 C33.84158203 239.14802734 33.87896484 238.33462891 33.91748047 237.49658203 C35.01275162 218.40450247 37.9476517 203.38520296 49.80419922 187.96142578 C50.46419922 186.97142578 51.12419922 185.98142578 51.80419922 184.96142578 C52.79419922 184.96142578 53.78419922 184.96142578 54.80419922 184.96142578 C55.00464844 185.47825928 55.20509766 185.99509277 55.41162109 186.52758789 C68.63771903 220.48132059 85.55281589 256.82135091 113.71435547 280.96533203 C114.40400391 281.62404297 115.09365234 282.28275391 115.80419922 282.96142578 C115.80419922 283.62142578 115.80419922 284.28142578 115.80419922 284.96142578 C110.67470795 283.65655519 108.13509445 281.68535209 104.55419922 277.83642578 C100.37755358 273.46048407 96.04443739 269.63067287 91.26513672 265.90673828 C77.90136431 255.34299438 67.56784742 244.06716662 59.80419922 228.96142578 C59.01142578 227.42228516 59.01142578 227.42228516 58.20263672 225.85205078 C57.04642313 223.56546078 55.91155667 221.27196969 54.80419922 218.96142578 C52.69439017 224.6056158 51.90566246 230.21408347 51.12451172 236.15283203 C50.18247936 242.45802588 48.5280355 248.6159001 43.55419922 252.89892578 C37.62510979 255.18971033 32.63705093 255.71577048 26.80419922 253.14111328 C14.46911509 245.865341 8.7577015 231.19224102 4.81201172 218.14111328 C2.26495224 208.19463016 1.44310708 198.45873323 1.49169922 188.21142578 C1.49907104 186.36109741 1.49907104 186.36109741 1.5065918 184.47338867 C1.62461109 175.27333089 2.4739851 166.88934418 4.80419922 157.96142578 C5.00770996 157.16849121 5.2112207 156.37555664 5.42089844 155.55859375 C6.48742311 151.40994677 7.58365998 147.27162806 8.71826172 143.14111328 C10.11121786 138.11309785 10.11121786 138.11309785 10.80419922 132.96142578 C9.53257803 130.95897191 9.53257803 130.95897191 7.49169922 129.27392578 C-6.53375021 114.49232169 -12.15153565 92.50870943 -18.28027344 73.61889648 C-18.62364746 72.56404053 -18.96702148 71.50918457 -19.32080078 70.42236328 C-19.76939453 69.02123291 -19.76939453 69.02123291 -20.22705078 67.59179688 C-23.08679579 59.82695497 -28.25965163 53.4532127 -33.29833984 46.99560547 C-51.17548662 24.06826547 -51.17548662 24.06826547 -50.57861328 11.41455078 C-49.69397568 5.74564857 -47.60006427 0.86083305 -43.25830078 -2.97607422 C-29.95744776 -11.93379156 -13.28253294 -6.28239883 0 0 Z " fill="#00608A" transform="translate(667.19580078125,8.03857421875)"/>
<path d="M0 0 C11.22 0 22.44 0 34 0 C34.0904595 15.86450888 34.16407423 31.72881184 34.20724869 47.59350395 C34.2278324 54.96054219 34.25587218 62.32740825 34.30175781 69.69433594 C34.34175468 76.11891238 34.36746325 82.54336406 34.37635398 88.96806157 C34.38154716 92.36673191 34.39366392 95.76504547 34.42292023 99.16360092 C34.45206319 102.96719041 34.45595125 106.77004684 34.45410156 110.57373047 C34.46848267 111.68791855 34.48286377 112.80210663 34.49768066 113.95005798 C34.45045367 122.95705039 32.62371754 130.29170392 26.625 137.1875 C13.47572956 149.26136542 -4.70310455 152.17511513 -21.89233398 152.11352539 C-22.96624893 152.11367142 -24.04016388 152.11381744 -25.1466217 152.1139679 C-28.67979993 152.11327382 -32.21292478 152.1055051 -35.74609375 152.09765625 C-38.20231599 152.09579028 -40.65853861 152.09436722 -43.11476135 152.09336853 C-49.56734247 152.08955749 -56.01990095 152.07973927 -62.47247314 152.06866455 C-69.06172377 152.05842004 -75.65097807 152.0538644 -82.24023438 152.04882812 C-95.16016778 152.03811573 -108.08007846 152.02053037 -121 152 C-121 144.41 -121 136.82 -121 129 C-117.83607666 128.98541748 -114.67215332 128.97083496 -111.41235352 128.95581055 C-100.9428907 128.90540776 -90.47357572 128.83880244 -80.00425816 128.76428509 C-73.6585321 128.71961347 -67.31286978 128.68035002 -60.96704102 128.65356445 C-54.83962397 128.62749985 -48.71245258 128.58707446 -42.58518791 128.53681374 C-40.25093587 128.52016649 -37.91664136 128.50863891 -35.58233833 128.50238609 C-32.30536447 128.49272198 -29.02901609 128.46463389 -25.75219727 128.43237305 C-24.31396606 128.43452568 -24.31396606 128.43452568 -22.84667969 128.4367218 C-15.35409713 128.33283374 -9.12976347 127.28541742 -2.98828125 122.80078125 C-0.49812213 119.29303255 -0.22338049 116.35362403 -0.1875 112.1875 C-0.16236328 111.49462891 -0.13722656 110.80175781 -0.11132812 110.08789062 C-0.05286737 108.39252878 -0.02346953 106.69620713 0 105 C-1.47552841 105.00999275 -1.47552841 105.00999275 -2.98086548 105.02018738 C-12.3065039 105.0813249 -21.63210101 105.12612803 -30.95789528 105.15543652 C-35.75098732 105.17101144 -40.543916 105.19209807 -45.33691406 105.22631836 C-49.97295078 105.25920626 -54.60883156 105.27691426 -59.24497604 105.28463173 C-61.00297877 105.29012294 -62.76097415 105.30084384 -64.51890945 105.31719017 C-82.19175267 105.47480486 -99.92503422 103.6506522 -114.08984375 91.90234375 C-119.35387646 86.65984082 -122.10891178 81.12742941 -122.12442017 73.67675781 C-122.12082489 72.95818604 -122.11722961 72.23961426 -122.11352539 71.49926758 C-122.11367142 70.73805099 -122.11381744 69.97683441 -122.1139679 69.19255066 C-122.11327124 66.6765152 -122.10549038 64.16055378 -122.09765625 61.64453125 C-122.09579119 59.90004008 -122.0943677 58.1555484 -122.09336853 56.41105652 C-122.08955026 51.81941278 -122.07972584 47.22780067 -122.06866455 42.63616943 C-122.05663719 37.1270437 -122.0520449 31.61790739 -122.04621124 26.10877228 C-122.03651374 17.73915952 -122.01735235 9.36961616 -122 1 C-110.78 1 -99.56 1 -88 1 C-87.97421875 6.43984375 -87.9484375 11.8796875 -87.921875 17.484375 C-87.89670969 20.92973474 -87.87037942 24.37500641 -87.83984375 27.8203125 C-87.79148267 33.2893915 -87.74744816 38.75826669 -87.72900391 44.22753906 C-87.71386445 48.63683555 -87.67946771 53.04559908 -87.63169098 57.45465851 C-87.61684907 59.13712177 -87.60895738 60.81966112 -87.60811615 62.50218964 C-87.60575307 64.85848367 -87.57872959 67.21329685 -87.54589844 69.56933594 C-87.5509288 70.26561096 -87.55595917 70.96188599 -87.56114197 71.67926025 C-87.49032985 74.96198994 -87.2146106 76.71958355 -85.1960907 79.35704041 C-77.03994425 85.45889179 -66.63968955 84.47508194 -56.93359375 84.51171875 C-55.47333347 84.52721182 -54.01308648 84.54401345 -52.55285645 84.56213379 C-47.18121716 84.6197268 -41.80933161 84.65213415 -36.4375 84.6875 C-24.413125 84.790625 -12.38875 84.89375 0 85 C0 56.95 0 28.9 0 0 Z " fill="#00608A" transform="translate(376,360)"/>
<path d="M0 0 C1.01568558 -0.00014603 2.03137115 -0.00029205 3.07783508 -0.0004425 C6.4053467 0.00024922 9.732801 0.00800671 13.06030273 0.01586914 C15.37914499 0.01773595 17.69798765 0.01915861 20.01683044 0.02015686 C26.0978404 0.02396131 32.1788262 0.03377378 38.25982666 0.04486084 C44.47391432 0.05511964 50.68800591 0.05966403 56.90209961 0.06469727 C69.07854419 0.07539802 81.25496454 0.09297792 93.43139648 0.11352539 C93.43139648 7.70352539 93.43139648 15.29352539 93.43139648 23.11352539 C88.95814819 23.13539917 88.95814819 23.13539917 84.39453125 23.15771484 C74.52377173 23.20812969 64.65316882 23.27473707 54.78256321 23.3492403 C48.80004291 23.39390178 42.81759006 23.4331674 36.83496094 23.45996094 C31.05766424 23.48603575 25.28062764 23.52646819 19.50349236 23.57671165 C17.30321433 23.59335204 15.10289134 23.60488388 12.90255928 23.6111393 C9.81236857 23.62081099 6.72283908 23.64890765 3.6328125 23.68115234 C2.27873795 23.67899971 2.27873795 23.67899971 0.89730835 23.67680359 C-5.60714247 23.77232358 -12.80314276 24.35336246 -17.60766602 29.14868164 C-19.05702731 33.62049148 -19.00170842 37.88003663 -18.94360352 42.55102539 C-18.95520508 43.47979492 -18.96680664 44.40856445 -18.97875977 45.36547852 C-18.95606205 50.68052715 -18.60568975 54.55789603 -15.56860352 59.11352539 C-10.23108918 63.40674344 -5.77401569 64.22507397 0.91748047 64.27124023 C2.53087563 64.28663345 2.53087563 64.28663345 4.17686462 64.30233765 C5.33207108 64.30963898 6.48727753 64.31694031 7.67749023 64.32446289 C10.14950183 64.35255193 12.62150694 64.38121651 15.09350586 64.41040039 C18.97037429 64.45146943 22.84712435 64.48837648 26.72412109 64.51489258 C70.50647798 64.8399328 70.50647798 64.8399328 86.43139648 80.11352539 C93.02680056 87.65790847 92.64520525 94.60275842 92.67163086 104.16552734 C92.68128596 106.27685719 92.71231019 108.38719138 92.74389648 110.49829102 C92.82625853 120.83881958 92.11770133 129.4126337 84.75170898 137.13305664 C68.09815817 151.34745102 48.49004761 151.7002146 27.68139648 151.50415039 C25.32772303 151.49667367 22.97404328 151.49098752 20.62036133 151.48699951 C14.4784574 151.47185587 8.33694251 151.43267307 2.19519043 151.38818359 C-4.09320822 151.34698564 -10.3816708 151.3289365 -16.67016602 151.30883789 C-28.96984206 151.26616629 -41.26912931 151.19591057 -53.56860352 151.11352539 C-53.56860352 143.85352539 -53.56860352 136.59352539 -53.56860352 129.11352539 C-49.36799194 129.08379639 -49.36799194 129.08379639 -45.08251953 129.0534668 C-35.8104931 128.98643862 -26.53857711 128.90880098 -17.26667881 128.82599831 C-11.64737459 128.7761388 -6.02808824 128.72980799 -0.40869141 128.69165039 C5.01843162 128.65466675 10.44540137 128.60827163 15.87239265 128.55546188 C17.93870405 128.53698729 20.00504821 128.52185398 22.07140923 128.51018143 C24.97468501 128.49319988 27.87761504 128.46413684 30.78076172 128.43237305 C32.05067963 128.42913277 32.05067963 128.42913277 33.34625244 128.42582703 C41.49402853 128.3125975 48.97189233 127.47018737 55.43139648 122.11352539 C58.35671906 117.45240713 57.76118929 112.50566688 57.74389648 107.17602539 C57.76000977 106.18666992 57.77612305 105.19731445 57.79272461 104.17797852 C57.86019822 97.11851546 57.86019822 97.11851546 54.43139648 91.11352539 C49.34049643 88.01471666 44.58873585 87.01032986 38.69555664 86.93994141 C37.78335358 86.92645157 36.87115051 86.91296173 35.93130493 86.89906311 C34.95422577 86.88862473 33.97714661 86.87818634 32.97045898 86.86743164 C30.86759081 86.83445688 28.76472632 86.80124593 26.66186523 86.76782227 C23.37332014 86.72074548 20.08478587 86.67636766 16.79614258 86.63671875 C-31.71398096 86.02401336 -31.71398096 86.02401336 -47.50610352 70.16821289 C-53.58280311 62.71841291 -53.91159698 54.56063075 -53.81860352 45.30102539 C-53.81111084 44.32633301 -53.80361816 43.35164063 -53.79589844 42.34741211 C-53.62433308 30.89374706 -52.76030729 21.99479246 -44.88500977 13.24243164 C-32.92557843 1.68081923 -15.81801436 -0.06049245 0 0 Z " fill="#E38D00" transform="translate(487.568603515625,314.886474609375)"/>
<path d="M0 0 C10.89 0 21.78 0 33 0 C33.01458252 3.47732666 33.02916504 6.95465332 33.04418945 10.53735352 C33.09453461 22.0286158 33.16098002 33.51975361 33.23571491 45.01088047 C33.28063223 51.97769722 33.32005615 58.94446331 33.34643555 65.91137695 C33.37191044 72.63529639 33.41284238 79.35895973 33.46318626 86.08274651 C33.47986642 88.64752329 33.49137352 91.21233912 33.49761391 93.77716255 C33.50724209 97.37064379 33.53528778 100.96354605 33.56762695 104.55688477 C33.56619186 105.6164035 33.56475677 106.67592224 33.5632782 107.76754761 C33.63751129 113.60325229 34.14770665 117.86247499 37 123 C38.94006748 124.61376803 38.94006748 124.61376803 41.25 125.375 C41.97703125 125.67148437 42.7040625 125.96796875 43.453125 126.2734375 C49.64030991 128.03849332 55.86058388 128.16135581 62.23999023 128.20532227 C63.13834091 128.21522186 64.03669159 128.22512146 64.96226501 128.23532104 C67.91101509 128.2667326 70.85978124 128.29161246 73.80859375 128.31640625 C75.86125592 128.33699337 77.91391402 128.35799029 79.96656799 128.37937927 C85.3537973 128.43441838 90.74106372 128.48390735 96.12835693 128.53222656 C101.63182861 128.58257464 107.13524679 128.63819108 112.63867188 128.69335938 C123.42573713 128.80071865 134.21284815 128.90172528 145 129 C145 136.26 145 143.52 145 151 C132.23795682 151.06806888 119.47603636 151.12298427 106.71385193 151.15543652 C100.78637895 151.1710204 94.85903778 151.19212421 88.93164062 151.22631836 C83.19982629 151.25917323 77.46813788 151.27690758 71.73623657 151.28463173 C69.56122865 151.29012871 67.38622677 151.30086135 65.21127319 151.31719017 C45.93946371 151.45597983 23.86005031 151.2653659 8.97265625 137.06640625 C0.76007961 128.49740676 -0.45454324 120.48415759 -0.34057617 108.87084961 C-0.34101425 107.68935333 -0.34145233 106.50785706 -0.34190369 105.29055786 C-0.33982469 101.41098119 -0.31653486 97.53184432 -0.29296875 93.65234375 C-0.28569537 90.95235944 -0.28295333 88.25237555 -0.28010559 85.55238342 C-0.270813 79.18835893 -0.2462374 72.82449062 -0.21605712 66.46053463 C-0.18242585 59.21018369 -0.16600526 51.95982495 -0.15097082 44.70941532 C-0.11968498 29.8061758 -0.06470825 14.90313891 0 0 Z " fill="#E38D00" transform="translate(782,315)"/>
<path d="M0 0 C5.64580169 5.31462338 8.05328891 11.85774213 8.3125 19.5 C7.97078427 27.14364137 6.16388652 33.01151696 0.5 38.3125 C-6.44837338 43.61210682 -13.60091744 45.01092394 -22.25 43.9375 C-29.41413511 42.12653421 -34.24587533 38.07932808 -38.25 31.9375 C-41.77067412 24.64556998 -42.12336734 18.17995168 -39.75 10.4375 C-37.21042766 3.92761033 -33.3362699 0.1861574 -27.26953125 -3.15234375 C-17.93061159 -7.19734488 -8.38308213 -5.32003289 0 0 Z M-30.625 7.4375 C-34.45118446 13.32393762 -35.05356893 17.93355351 -34.25 24.9375 C-32.33715152 30.58298795 -28.43383723 34.10117894 -23.3671875 37.0234375 C-19.7373688 38.5905548 -16.12950142 38.399824 -12.25 37.9375 C-8.79653852 36.59003476 -8.79653852 36.59003476 -6.25 34.9375 C-6.8378125 34.72351563 -7.425625 34.50953125 -8.03125 34.2890625 C-11.80594148 31.98969058 -13.33693902 28.04286692 -15.46875 24.2734375 C-16.0565625 23.50257813 -16.644375 22.73171875 -17.25 21.9375 C-18.57 21.9375 -19.89 21.9375 -21.25 21.9375 C-21.25 25.8975 -21.25 29.8575 -21.25 33.9375 C-22.9 33.9375 -24.55 33.9375 -26.25 33.9375 C-26.25 24.3675 -26.25 14.7975 -26.25 4.9375 C-23.341875 5.185 -20.43375 5.4325 -17.4375 5.6875 C-16.52508545 5.75549805 -15.6126709 5.82349609 -14.67260742 5.89355469 C-8.77703738 6.47398502 -8.77703738 6.47398502 -6.17578125 8.76171875 C-5.16829865 11.12951541 -4.93664824 12.45891309 -5.25 15 C-5.3428125 16.00740234 -5.3428125 16.00740234 -5.4375 17.03515625 C-6.25 18.9375 -6.25 18.9375 -11.25 21.9375 C-8.94 25.5675 -6.63 29.1975 -4.25 32.9375 C0.36014189 28.32735811 1.54816349 26.44027267 2.0625 20.0625 C1.895987 14.53634971 -0.00887294 10.45443308 -3.5 6.1875 C-7.63832112 2.8016009 -11.38210939 1.17523153 -16.6875 0.5 C-22.42946163 1.20515318 -26.63505267 3.23755544 -30.625 7.4375 Z M-21.25 9.9375 C-21.25 12.2475 -21.25 14.5575 -21.25 16.9375 C-18.28 16.9375 -15.31 16.9375 -12.25 16.9375 C-11.59 15.6175 -10.93 14.2975 -10.25 12.9375 C-11.240755 11.27108994 -11.240755 11.27108994 -13.25 9.9375 C-15.96846235 9.66404521 -18.50677199 9.80258715 -21.25 9.9375 Z " fill="#E48E00" transform="translate(982.25,424.0625)"/>
<path d="M0 0 C3.69514876 3.597908 5.17324291 6.69844324 5.8125 11.8125 C5.29030754 15.99003969 4.05359837 18.09818196 1.375 21.3125 C0.385 21.6425 -0.605 21.9725 -1.625 22.3125 C-2.04910156 21.47847656 -2.47320313 20.64445312 -2.91015625 19.78515625 C-6.58795321 12.72863594 -10.44389973 6.40698573 -15.625 0.3125 C-15.295 -0.3475 -14.965 -1.0075 -14.625 -1.6875 C-8.92533175 -2.89319905 -4.95786445 -3.18719858 0 0 Z " fill="#00608A" transform="translate(705.625,64.6875)"/>
</svg>
