<?xml version="1.0" encoding="UTF-8"?>
<svg version="1.1" xmlns="http://www.w3.org/2000/svg" width="256" height="256">
<path d="M0 0 C1.91752075 0.00737183 1.91752075 0.00737183 3.8737793 0.01489258 C13.18720414 0.13032624 21.73142766 0.84835468 30.75 3.3125 C32.0184375 3.64121094 33.286875 3.96992187 34.59375 4.30859375 C68.30851956 13.60993801 95.89698038 36.0701216 113.48632812 66.01513672 C128.71523428 93.70138226 134.11411038 128.62052775 125.75 159.3125 C125.5348877 160.1060791 125.31977539 160.8996582 125.09814453 161.71728516 C115.43586262 196.00428283 93.86820205 226.36939972 62.75 244.3125 C59.51788889 246.04308442 56.24518808 247.66915569 52.9375 249.25 C52.17381104 249.61544922 51.41012207 249.98089844 50.62329102 250.35742188 C44.43647608 253.20805897 37.64577265 256.3125 30.75 256.3125 C30.74191315 255.64566193 30.73382629 254.97882385 30.72549438 254.29177856 C30.63905515 247.31542752 30.5395368 240.33934782 30.43261719 233.36328125 C30.39446918 230.76404397 30.35959226 228.16475644 30.328125 225.56542969 C30.28216571 221.81687533 30.22422256 218.06866266 30.1640625 214.3203125 C30.14673569 212.59314499 30.14673569 212.59314499 30.12905884 210.83108521 C29.98540397 197.85431819 29.98540397 197.85431819 24.625 186.375 C21.75 182.58522727 21.75 182.58522727 21.75 179.3125 C22.719375 179.1165625 23.68875 178.920625 24.6875 178.71875 C41.92525799 174.97905509 57.38879423 167.99873519 67.625 153 C75.11548405 140.43930623 77.58216852 126.07211389 75.13671875 111.7109375 C73.66661605 105.97300361 71.86536313 101.30245953 68.55541992 96.36914062 C63.60087124 88.91621831 63.31076901 83.50901663 64.19580078 74.67041016 C64.9227913 67.28811311 64.0463274 61.42203341 61.75 54.3125 C50.21751482 55.18617312 40.28696482 59.95452345 30.75 66.3125 C28.796875 66.359375 28.796875 66.359375 26.5 66.0625 C25.61957031 65.95550781 24.73914063 65.84851563 23.83203125 65.73828125 C21.57889406 65.42701135 19.32637116 65.11128572 17.07421875 64.79296875 C7.18379134 63.41129095 -1.29464835 63.00955271 -11.1875 64.25 C-12.23901245 64.37785889 -12.23901245 64.37785889 -13.31176758 64.50830078 C-16.24787712 64.87656209 -19.12685187 65.284108 -22.01171875 65.94921875 C-29.19617551 67.43361064 -33.99709936 64.14546887 -39.85546875 60.390625 C-44.96782053 57.26085383 -49.66849579 55.03726056 -55.6875 54.625 C-56.55246094 54.55925781 -57.41742188 54.49351563 -58.30859375 54.42578125 C-58.94925781 54.38839844 -59.58992188 54.35101563 -60.25 54.3125 C-63.3266314 66.01809779 -63.3266314 66.01809779 -62.734375 77.97265625 C-61.49969292 85.53010545 -63.16371302 89.86839371 -67.12719727 96.16601562 C-75.16191559 108.94812081 -75.31198351 123.88456685 -72.25 138.3125 C-68.98195771 150.78008134 -61.58964107 161.5399717 -50.54199219 168.36816406 C-40.90011413 173.94498184 -31.12519986 177.11432131 -20.25 179.3125 C-20.86380303 182.42289513 -21.90009118 184.52079308 -23.6875 187.125 C-25.58833457 190.01405254 -26.34732633 191.71478218 -27.1875 195.1875 C-28.25 198.3125 -28.25 198.3125 -30.8125 199.8125 C-36.09691154 200.58114168 -40.6491667 200.89226541 -45.359375 198.03125 C-50.04626037 194.18001086 -53.18293428 189.62444146 -56.53125 184.6171875 C-61.22013879 178.32981389 -67.55920297 175.90778984 -75.125 174.6875 C-76.15625 174.56375 -77.1875 174.44 -78.25 174.3125 C-78.08628906 174.86421875 -77.92257813 175.4159375 -77.75390625 175.984375 C-77.19239586 178.57864007 -77.15260992 180.91085411 -77.1875 183.5625 C-77.19652344 184.45453125 -77.20554688 185.3465625 -77.21484375 186.265625 C-77.22644531 186.94109375 -77.23804688 187.6165625 -77.25 188.3125 C-76.50621094 188.41433594 -75.76242188 188.51617187 -74.99609375 188.62109375 C-68.11680925 190.35314689 -63.6947969 196.88776226 -59.73828125 202.390625 C-55.28104866 208.14642141 -50.27398057 211.53177253 -43.25 213.3125 C-38.63 213.3125 -34.01 213.3125 -29.25 213.3125 C-29.25 227.5025 -29.25 241.6925 -29.25 256.3125 C-36.25611778 254.91127644 -41.75970284 253.5943784 -48.0625 250.6875 C-49.2225354 250.16071655 -49.2225354 250.16071655 -50.40600586 249.62329102 C-83.13259479 234.4231195 -107.45473525 206.90635485 -120 173.3125 C-128.07509546 149.46914382 -130.89691257 122.88185701 -124.25 98.3125 C-123.75693359 96.40791016 -123.75693359 96.40791016 -123.25390625 94.46484375 C-113.94492302 60.75156681 -91.49433135 33.16666676 -61.54736328 15.57617188 C-42.50338566 5.10097228 -21.67296395 -0.09878027 0 0 Z " fill="#FFFFFF" transform="translate(127.25,-0.3125)"/>
</svg>
