<?xml version="1.0" encoding="UTF-8"?>
<svg version="1.1" xmlns="http://www.w3.org/2000/svg" width="256" height="256">
<path d="M0 0 C0.90755092 -0.00297112 1.81510185 -0.00594224 2.75015432 -0.0090034 C5.80392986 -0.01770387 8.85766627 -0.0191998 11.91145325 -0.02069092 C14.09593286 -0.02531819 16.28041167 -0.03034272 18.46488953 -0.03573608 C24.40927402 -0.04887202 30.35364722 -0.05530752 36.29804397 -0.05974674 C40.01097691 -0.06267591 43.72390676 -0.06678045 47.43683815 -0.07125092 C59.71885749 -0.08571636 72.00086832 -0.09504313 84.28289541 -0.09911743 C85.27634843 -0.09945158 85.27634843 -0.09945158 86.28987122 -0.09979248 C86.95298332 -0.10001391 87.61609543 -0.10023534 88.29930184 -0.10046348 C99.03787169 -0.10440929 109.7763736 -0.12185627 120.51491722 -0.145152 C131.54397524 -0.16888446 142.57299748 -0.18107094 153.60208112 -0.18249393 C159.79285778 -0.18354234 165.98353866 -0.18945784 172.17429161 -0.20731354 C177.99945332 -0.22378733 183.82444717 -0.22595298 189.64962387 -0.21717453 C191.7861342 -0.21640376 193.92265353 -0.22075217 196.05914116 -0.23063278 C198.97940578 -0.24334452 201.89907525 -0.23747942 204.81933594 -0.22705078 C205.66166832 -0.23510719 206.5040007 -0.24316359 207.3718583 -0.25146413 C214.04244623 -0.19588252 219.22211747 1.29645873 224.97712708 4.82794189 C231.97966833 12.02499818 232.33529629 20.51971072 232.45515442 30.05059814 C232.18906226 36.57234757 231.19014184 40.54764132 226.360672 45.05426025 C223.69815753 47.15689262 220.9744058 49.09385731 218.11579895 50.92071533 C215.62684228 52.52811289 213.37906688 54.37301841 211.10212708 56.26544189 C210.32611145 56.87645752 209.55009583 57.48747314 208.75056458 58.11700439 C205.69334752 60.56845708 202.71002357 63.0995039 199.72712708 65.64044189 C195.23222724 69.46570926 190.68374496 73.20261979 186.05915833 76.87091064 C180.14143329 81.61325305 174.31303841 86.46606147 168.46492004 91.29376221 C164.88800913 94.2455137 161.30744377 97.19282322 157.72712708 100.14044189 C156.3104416 101.30708572 154.89377496 102.47375243 153.47712708 103.64044189 C150.64379374 105.97377523 147.81046041 108.30710856 144.97712708 110.64044189 C144.27515198 111.21866699 143.57317688 111.79689209 142.84992981 112.39263916 C141.44109514 113.55259861 140.03175703 114.71194688 138.62190247 115.8706665 C134.95592187 118.88499264 131.30076015 121.91122732 127.66072083 124.95684814 C126.90790833 125.58397705 126.15509583 126.21110596 125.37947083 126.85723877 C123.95297964 128.04598142 122.52954921 129.23841154 121.10993958 130.43536377 C108.15554134 141.20514455 108.15554134 141.20514455 101.27400208 140.67169189 C93.21086239 138.57896862 86.66397845 131.25560918 80.49275208 125.94122314 C75.81493349 121.91340696 71.01598132 118.03490718 66.22712708 114.14044189 C57.6137899 107.10887497 49.02978768 100.04199105 40.44880676 92.9710083 C36.87550657 90.02676601 33.30128279 87.0836455 29.72712708 84.14044189 C28.31045571 82.97378094 26.89378905 81.80711426 25.47712708 80.64044189 C24.77587708 80.06294189 24.07462708 79.48544189 23.35212708 78.89044189 C21.22712708 77.14044189 19.10212708 75.39044189 16.97712708 73.64044189 C15.92464783 72.7737085 15.92464783 72.7737085 14.85090637 71.88946533 C13.43827111 70.72609954 12.02567328 69.56268829 10.6131134 68.39923096 C4.10740712 63.03985397 4.10740712 63.03985397 -2.40592957 57.6897583 C-3.84910844 56.49829103 -5.28466082 55.29752026 -6.71208191 54.08721924 C-9.86876264 51.42454698 -12.93231265 48.96068 -16.50724792 46.88262939 C-20.23735657 44.5097199 -22.39521369 42.891366 -24.77287292 39.14044189 C-26.82195858 29.45255134 -26.93492461 17.4994815 -21.91398621 8.72247314 C-20.29977585 6.48454352 -18.57113895 5.11301026 -16.21037292 3.70294189 C-15.44595886 3.22985596 -14.6815448 2.75677002 -13.89396667 2.26934814 C-9.31460545 -0.16791777 -5.05164747 -0.00512857 0 0 Z " fill="#FFFFFF" transform="translate(24.772872924804688,30.85955810546875)"/>
<path d="M0 0 C1.26591801 0.94247363 2.5308646 1.88625212 3.79541016 2.83056641 C4.49993317 3.3559903 5.20445618 3.88141418 5.93032837 4.42276001 C8.83646019 6.63744337 11.60845223 8.99000022 14.375 11.375 C18.90855509 15.24648939 23.49683255 19.02525409 28.16796875 22.73046875 C34.08569379 27.47281116 39.91408867 32.32561957 45.76220703 37.15332031 C49.33911795 40.1050718 52.91968331 43.05238133 56.5 46 C57.91668547 47.16664383 59.33335211 48.33331053 60.75 49.5 C61.45125 50.0775 62.1525 50.655 62.875 51.25 C69.25 56.5 69.25 56.5 71.37670898 58.25146484 C72.78760381 59.41334006 74.19857337 60.57512452 75.60961914 61.73681641 C79.24022598 64.72603701 82.86935939 67.71701928 86.49609375 70.7109375 C90.04833188 73.64315284 93.60634991 76.5682331 97.16699219 79.49023438 C98.78686969 80.8244542 100.39802065 82.16925363 102.0078125 83.515625 C112.45185791 92.13914874 121.48626214 94.96916706 135 94 C142.07280591 92.34967862 147.5154346 88.61007664 153 84 C154.00160156 83.15824219 155.00320312 82.31648438 156.03515625 81.44921875 C158.2919674 79.54416624 160.54146164 77.63074666 162.7890625 75.71484375 C166.19065271 72.82498837 169.67124489 70.04318459 173.16796875 67.26953125 C179.08569379 62.52718884 184.91408867 57.67438043 190.76220703 52.84667969 C194.33911795 49.8949282 197.91968331 46.94761867 201.5 44 C202.91668547 42.83335617 204.33335211 41.66668947 205.75 40.5 C208.58333333 38.16666667 211.41666667 35.83333333 214.25 33.5 C214.9517334 32.92209717 215.6534668 32.34419434 216.37646484 31.7487793 C217.78822989 30.5861588 219.20001364 29.42356102 220.61181641 28.26098633 C224.96972029 24.67233147 229.32686921 21.08276228 233.68359375 17.49267578 C235.81706729 15.7352222 237.95140419 13.97882243 240.0859375 12.22265625 C242.55290883 10.19290778 245.01651923 8.15923175 247.4765625 6.12109375 C248.47429687 5.29738281 249.47203125 4.47367187 250.5 3.625 C251.3559375 2.91601562 252.211875 2.20703125 253.09375 1.4765625 C255 0 255 0 256 0 C256.09358587 14.85590247 256.16404885 29.71178203 256.20724869 44.56791687 C256.22784344 51.46643957 256.25590444 58.36477873 256.30175781 65.26318359 C256.34599851 71.92216511 256.36914681 78.5809167 256.37950897 85.24005127 C256.38689229 87.77894082 256.40131015 90.3178201 256.42292023 92.85662842 C256.45201172 96.41636585 256.45595342 99.97531882 256.45410156 103.53515625 C256.46848267 104.58172897 256.48286377 105.6283017 256.49768066 106.70658875 C256.46243487 112.97946916 255.63882587 117.78029903 252 123 C249.74609375 125.05859375 249.74609375 125.05859375 247.4375 126.4375 C246.67308594 126.91058594 245.90867188 127.38367188 245.12109375 127.87109375 C240.54173253 130.30835967 236.27877454 130.14557046 231.22712708 130.14044189 C230.31957615 130.14341302 229.41202523 130.14638414 228.47697276 130.1494453 C225.42319721 130.15814577 222.3694608 130.15964169 219.31567383 130.16113281 C217.13119421 130.16576008 214.94671541 130.17078462 212.76223755 130.17617798 C206.81785305 130.18931392 200.87347986 130.19574942 194.92908311 130.20018864 C191.21615016 130.20311781 187.50322031 130.20722235 183.79028893 130.21169281 C171.50826959 130.22615826 159.22625875 130.23548503 146.94423167 130.23955932 C145.95077864 130.23989347 145.95077864 130.23989347 144.93725586 130.24023438 C144.27414375 130.2404558 143.61103165 130.24067723 142.92782523 130.24090537 C132.18925538 130.24485119 121.45075348 130.26229817 110.71220986 130.2855939 C99.68315184 130.30932635 88.65412959 130.32151284 77.62504596 130.32293582 C71.43426929 130.32398423 65.24358842 130.32989974 59.05283546 130.34775543 C53.22767375 130.36422923 47.4026799 130.36639487 41.5775032 130.35761642 C39.44099287 130.35684565 37.30447354 130.36119407 35.16798592 130.37107468 C32.24772129 130.38378641 29.32805183 130.37792132 26.40779114 130.36749268 C25.14429257 130.37957728 25.14429257 130.37957728 23.85526878 130.39190602 C17.18468085 130.33632441 12.00500961 128.84398317 6.25 125.3125 C0.91305419 119.8273057 -0.45540381 114.23082426 -0.49768066 106.70658875 C-0.48329956 105.66001602 -0.46891846 104.6134433 -0.45410156 103.53515625 C-0.45468567 102.41232742 -0.45526978 101.2894986 -0.45587158 100.13264465 C-0.4530975 96.44227576 -0.42203583 92.75272682 -0.390625 89.0625 C-0.38316025 86.49560996 -0.37746842 83.9287142 -0.37347412 81.36181641 C-0.35979162 75.30934016 -0.32830585 69.25719944 -0.28807616 63.20484924 C-0.24324892 56.31003575 -0.22134402 49.41520777 -0.20129442 42.52028465 C-0.15956945 28.34670033 -0.08928615 14.17336055 0 0 Z " fill="#FFFFFF" transform="translate(0,95)"/>
</svg>
