<?xml version="1.0" encoding="UTF-8"?>
<svg version="1.1" xmlns="http://www.w3.org/2000/svg" width="256" height="256">
<path d="M0 0 C27.15319561 21.10931597 44.76927205 49.13151489 51 83 C51.176521 83.94182129 51.35304199 84.88364258 51.53491211 85.85400391 C56.38357422 118.65183064 47.52105162 153.29490049 28 180 C6.89068403 207.15319561 -21.13151489 224.76927205 -55 231 C-55.94182129 231.176521 -56.88364258 231.35304199 -57.85400391 231.53491211 C-90.65183064 236.38357422 -125.29490049 227.52105162 -152 208 C-179.15319561 186.89068403 -196.76927205 158.86848511 -203 125 C-203.176521 124.05817871 -203.35304199 123.11635742 -203.53491211 122.14599609 C-208.38357422 89.34816936 -199.52105162 54.70509951 -180 28 C-158.89068403 0.84680439 -130.86848511 -16.76927205 -97 -23 C-95.58726807 -23.26478149 -95.58726807 -23.26478149 -94.14599609 -23.53491211 C-61.34816936 -28.38357422 -26.70509951 -19.52105162 0 0 Z M-116 26 C-122.22086033 40.73361658 -119.26681557 60.77727154 -113.875 75.4375 C-113.54242188 76.24058594 -113.20984375 77.04367188 -112.8671875 77.87109375 C-112.04050428 79.90056383 -111.47674324 81.86438489 -111 84 C-111.74443359 84.58394531 -111.74443359 84.58394531 -112.50390625 85.1796875 C-123.6444063 94.35421695 -131.2694856 107.53953722 -133 122 C-134.34949586 137.32196838 -130.44046183 152.51651711 -120.89453125 164.68359375 C-111.04243166 176.09575042 -99.07997262 183.72211186 -84 186 C-67.5403505 187.20396234 -52.06391542 184.16776445 -39.24438477 173.15893555 C-27.27106793 162.32343116 -20.11642606 149.4337169 -18.76171875 133.1328125 C-18.32067258 115.25883619 -24.33625564 101.34261665 -36 88 C-37.65252315 86.31930884 -39.31588277 84.64903145 -41 83 C-40.67386719 82.20980469 -40.34773438 81.41960937 -40.01171875 80.60546875 C-33.70028878 64.31490467 -30.48857644 46.16001598 -35 29 C-36.45373909 26.03194936 -37.68393985 24.31606015 -40 22 C-43.54750833 21.86088203 -45.9715013 22.18298913 -48.8046875 24.43359375 C-60.78891896 37.2434056 -65.22443314 56.03936137 -67 73 C-67.71285156 72.91621094 -68.42570312 72.83242187 -69.16015625 72.74609375 C-70.11792969 72.64425781 -71.07570312 72.54242188 -72.0625 72.4375 C-73.00222656 72.33308594 -73.94195312 72.22867188 -74.91015625 72.12109375 C-78.38736419 71.98481885 -81.57470205 72.42270259 -85 73 C-85.14695313 71.98164062 -85.29390625 70.96328125 -85.4453125 69.9140625 C-87.93433594 53.78164585 -91.65392518 35.3882156 -104.125 23.8125 C-106.82462705 21.88006995 -106.82462705 21.88006995 -109.625 21.4375 C-112.86316809 22.20443455 -113.98801939 23.36361162 -116 26 Z " fill="#FFFFFF" transform="translate(204,24)"/>
<path d="M0 0 C10.40495264 8.56878452 13.74638118 23.65579925 15.46484375 36.46484375 C15.70099059 38.97835195 15.89313801 41.47805699 16 44 C12.27034861 46.03435531 10.33094958 47 6 47 C-1.57377768 36.38429522 -4.38200816 20.81862638 -3 8 C-1.83297645 1.83297645 -1.83297645 1.83297645 0 0 Z " fill="#FFFFFF" transform="translate(95,55)"/>
<path d="M0 0 C0.66 0 1.32 0 2 0 C6.39012121 14.54227652 3.67618839 30.48544861 -3 44 C-3.66 44.99 -4.32 45.98 -5 47 C-9.29625631 46.51178906 -11.6615409 45.70705488 -15 43 C-11.08636364 11.08636364 -11.08636364 11.08636364 0 0 Z " fill="#FFFFFF" transform="translate(160,55)"/>
<path d="M0 0 C3.25 1.5625 3.25 1.5625 5 4 C5.67905229 8.149764 5.48249922 10.19583464 3.3125 13.8125 C0.80897043 16.18070365 -0.65057724 17.22106448 -4 18 C-9.30379889 17.81057861 -12.19058032 16.69737793 -16 13 C-17.56430248 9.87139505 -17.35627284 7.44397075 -17 4 C-12.99182765 -1.58281149 -6.20911239 -0.83188384 0 0 Z " fill="#FFFFFF" transform="translate(134,173)"/>
<path d="M0 0 C3.55726159 1.70452118 4.58544372 2.77629552 6 6.4375 C5.86767049 9.67957294 5.25885966 11.89101851 3.875 14.8125 C2 16.4375 2 16.4375 -1.5 16.875 C-5 16.4375 -5 16.4375 -6.875 15.375 C-8.6155744 12.37734409 -8.88121951 9.88213409 -9 6.4375 C-7.07504438 2.10634986 -5.10825442 -0.9577977 0 0 Z " fill="#FFFFFF" transform="translate(108,145.5625)"/>
<path d="M0 0 C1.875 1.6875 1.875 1.6875 3 4 C2.87187287 7.58755974 2.38526247 10.20919809 0.8125 13.4375 C-1 15 -1 15 -3.9375 15.5 C-7 15 -7 15 -9.3125 13.375 C-11.39744561 10.44063211 -11.92657532 8.5978095 -12 5 C-10.74737098 2.0991749 -9.62711796 0.48079044 -7.125 -1.4375 C-4.09217362 -2.24030698 -2.69888693 -1.52244904 0 0 Z " fill="#FFFFFF" transform="translate(154,147)"/>
</svg>
