<?xml version="1.0" encoding="UTF-8"?>
<svg version="1.1" xmlns="http://www.w3.org/2000/svg" width="256" height="256">
<path d="M0 0 C5.90494076 3.51142564 11.6854771 6.25926975 18.3125 8.1875 C19.43591797 8.52394531 19.43591797 8.52394531 20.58203125 8.8671875 C39.96508495 13.68818552 59.41575822 9.02871041 76.3125 -0.8125 C76.95703125 -1.35777344 77.6015625 -1.90304688 78.265625 -2.46484375 C82.38001796 -5.17374751 86.42282627 -4.9603255 91.14453125 -4.17578125 C92.47550285 -3.84163158 93.80237551 -3.49079484 95.125 -3.125 C96.18146729 -2.84209106 96.18146729 -2.84209106 97.25927734 -2.5534668 C119.54600741 3.57193124 136.90197155 17.49396539 149.0859375 37.03125 C151.75451766 41.92610422 152.88750384 44.62988734 151.3125 50.1875 C149.92642102 52.54326386 148.560963 54.63744042 146.9375 56.8125 C146.27355225 57.72056396 146.27355225 57.72056396 145.59619141 58.64697266 C140.93068861 64.90525488 135.72181114 70.57266792 130.3125 76.1875 C129.67054688 76.89261719 129.02859375 77.59773438 128.3671875 78.32421875 C108.48959546 99.53558861 77.20300425 112.97972457 48.30322266 114.32788086 C12.82538036 115.35626128 -20.25288525 107.75760494 -47.6875 84.1875 C-48.23390137 83.71940918 -48.78030273 83.25131836 -49.34326172 82.76904297 C-73.67161024 61.67130727 -73.67161024 61.67130727 -77.5078125 48.3359375 C-78.0568269 38.71625038 -69.35071472 28.88219458 -63.30395508 22.03295898 C-49.07286178 6.5079292 -20.67619296 -12.85449237 0 0 Z " fill="#FFFFFF" transform="translate(90.6875,141.8125)"/>
<path d="M0 0 C15.83054184 12.24030707 25.90187996 28.16811629 29 48 C30.66426385 65.42802145 25.8202334 82.55420615 15.16015625 96.40234375 C3.93202036 109.90453247 -10.4791986 119.16094838 -28 122 C-46.54200637 123.58161278 -64.66568575 120.30032059 -79.44140625 108.34765625 C-93.25236134 96.39464874 -103.42925796 80.53475612 -105 62 C-106.1561939 41.5833078 -99.91873841 24.77967122 -86.75390625 9.37109375 C-64.54067934 -14.51997953 -26.86838659 -18.10186444 0 0 Z " fill="#FFFFFF" transform="translate(166,11)"/>
</svg>
